<svg viewBox="0 0 16 16" fill="none" xmlns="http://www.w3.org/2000/svg"><path d="M10.0007 12.6667C10.0007 12.0333 10.1895 11.4833 10.5673 11.0167C10.9451 10.55 11.4229 10.2389 12.0007 10.0833L12.0007 5.89999C11.534 5.77777 11.1312 5.54721 10.7923 5.20832C10.4534 4.86943 10.2229 4.46666 10.1007 3.99999L5.91732 3.99999C5.76176 4.57777 5.45065 5.05555 4.98398 5.43332C4.51732 5.8111 3.96732 5.99999 3.33398 5.99999C2.60065 5.99999 1.97287 5.73888 1.45065 5.21666C0.928428 4.69443 0.667317 4.06666 0.667317 3.33332C0.667317 2.59999 0.928428 1.97221 1.45065 1.44999C1.97287 0.927767 2.60065 0.666656 3.33398 0.666656C3.96732 0.666656 4.51732 0.855545 4.98398 1.23332C5.45065 1.6111 5.76176 2.08888 5.91732 2.66666L10.1007 2.66666C10.2562 2.08888 10.5673 1.6111 11.034 1.23332C11.5007 0.855545 12.0451 0.666656 12.6673 0.666656C13.4007 0.666656 14.0284 0.927768 14.5507 1.44999C15.0729 1.97221 15.334 2.59999 15.334 3.33332C15.334 3.95555 15.1451 4.49999 14.7673 4.96666C14.3895 5.43332 13.9118 5.74443 13.334 5.89999L13.334 10.0833C13.9118 10.2389 14.3895 10.55 14.7673 11.0167C15.1451 11.4833 15.334 12.0333 15.334 12.6667C15.334 13.4 15.0729 14.0278 14.5507 14.55C14.0284 15.0722 13.4007 15.3333 12.6673 15.3333C11.934 15.3333 11.3062 15.0722 10.784 14.55C10.2618 14.0278 10.0007 13.4 10.0007 12.6667ZM0.667317 12.6667C0.667317 11.9333 0.928427 11.3055 1.45065 10.7833C1.97287 10.2611 2.60065 9.99999 3.33398 9.99999C4.06732 9.99999 4.69509 10.2611 5.21732 10.7833C5.73954 11.3055 6.00065 11.9333 6.00065 12.6667C6.00065 13.4 5.73954 14.0278 5.21732 14.55C4.69509 15.0722 4.06732 15.3333 3.33398 15.3333C2.60065 15.3333 1.97287 15.0722 1.45065 14.55C0.928427 14.0278 0.667317 13.4 0.667317 12.6667Z" fill="#9b9b9b"/></svg>