<?xml version="1.0" standalone="no"?>
<!DOCTYPE svg PUBLIC "-//W3C//DTD SVG 20010904//EN"
 "http://www.w3.org/TR/2001/REC-SVG-20010904/DTD/svg10.dtd">
<svg version="1.0" xmlns="http://www.w3.org/2000/svg"
 width="600.000000pt" height="600.000000pt" viewBox="0 0 600.000000 600.000000"
 preserveAspectRatio="xMidYMid meet">

<g transform="translate(0.000000,600.000000) scale(0.100000,-0.100000)"
fill="#9b9b9b" stroke="none">
<path d="M3732 4840 c-47 -23 -63 -51 -64 -111 0 -42 18 -80 67 -139 36 -43
35 -61 -3 -41 -10 5 -28 8 -39 5 -11 -3 -78 -1 -149 5 -265 23 -702 39 -821
30 -317 -24 -380 -31 -412 -47 -38 -18 -59 -51 -25 -38 11 5 48 10 84 12 36 3
80 9 99 14 19 5 37 8 40 6 3 -2 79 1 169 7 97 7 240 9 355 6 105 -4 287 -10
402 -14 144 -4 219 -11 238 -20 15 -8 24 -9 21 -3 -11 18 97 -2 154 -29 30
-13 56 -22 59 -19 3 3 -26 36 -65 74 -116 115 -146 179 -112 242 37 70 226 27
316 -72 37 -41 42 -58 20 -58 -28 0 -57 -51 -53 -93 4 -48 27 -67 78 -67 53 0
83 39 75 97 l-5 41 28 -8 c37 -10 100 -51 130 -84 18 -19 25 -40 28 -78 4 -47
1 -56 -22 -81 -36 -38 -52 -94 -32 -114 18 -19 52 -4 60 27 6 24 -11 38 -25
19 -8 -12 -9 -11 -5 1 2 8 13 16 25 18 13 2 24 13 28 28 9 35 68 29 107 -11
23 -22 22 -87 0 -107 -31 -28 -194 -108 -218 -108 -52 0 -49 -58 13 -260 11
-36 32 -121 47 -190 15 -69 32 -143 38 -165 12 -46 14 -57 21 -105 9 -56 25
-128 41 -182 8 -28 12 -54 9 -59 -2 -5 4 -43 15 -86 21 -84 38 -178 46 -258
16 -149 16 -167 -1 -192 -24 -37 -4 -53 39 -30 61 33 153 24 244 -23 45 -23
53 -25 53 -11 1 14 2 14 9 1 13 -23 -3 -117 -26 -148 -34 -46 -74 -58 -175
-54 -26 1 -38 7 -38 16 0 8 -10 27 -23 42 -32 37 -120 46 -157 16 l-25 -20 29
-31 c17 -17 35 -31 40 -31 6 0 28 -5 49 -11 33 -9 36 -12 26 -30 -6 -12 -31
-30 -56 -41 -42 -18 -47 -19 -55 -4 -12 21 -61 41 -117 49 -37 5 -47 2 -67
-18 -13 -13 -24 -29 -24 -34 0 -23 52 -44 118 -47 l67 -3 3 -52 c5 -79 -3 -98
-49 -119 -39 -17 -116 -18 -129 -1 -3 4 -20 17 -37 30 -43 30 -83 99 -83 144
0 52 -9 67 -39 67 -65 0 -102 -35 -43 -42 23 -3 27 -8 28 -35 2 -48 39 -117
81 -150 82 -63 91 -66 169 -61 120 8 159 52 152 175 l-3 63 35 12 c43 14 88
46 95 67 4 13 21 16 83 17 66 0 86 5 130 29 62 34 81 60 89 124 5 44 3 51 -25
79 -51 52 -156 92 -243 92 l-46 0 5 55 c3 36 1 55 -7 55 -6 0 -8 11 -5 28 3
15 -9 102 -26 192 -17 91 -37 199 -44 241 -7 41 -16 81 -20 88 -4 6 -9 24 -11
39 -2 15 -11 61 -21 102 -9 41 -20 95 -25 120 -10 60 -69 282 -108 415 -12 38
-21 75 -21 81 0 7 17 19 38 28 70 30 164 84 193 112 24 23 29 36 29 76 0 40
-5 53 -27 75 -34 31 -64 43 -106 43 -32 0 -33 1 -35 46 -1 26 -10 60 -19 77
-24 40 -101 92 -169 114 -39 12 -62 26 -77 48 -44 64 -125 125 -197 148 -14 4
-52 10 -85 12 -47 4 -69 1 -103 -15z m388 -245 c15 -46 0 -75 -40 -75 -33 0
-45 23 -34 64 6 27 41 59 55 50 4 -2 13 -20 19 -39z m415 -2183 c46 -46 26
-55 -49 -22 -46 19 -57 34 -33 43 29 10 58 3 82 -21z m-165 -140 l25 -17 -47
-3 c-53 -3 -88 11 -88 35 0 13 7 14 43 9 23 -4 53 -15 67 -24z"/>
<path d="M1298 4802 c-10 -2 -18 -7 -18 -11 0 -5 -13 -11 -30 -14 -39 -8 -80
-35 -80 -53 0 -8 -4 -14 -9 -14 -16 0 -23 -40 -11 -55 6 -8 9 -19 5 -25 -3 -5
-2 -10 4 -10 6 0 17 -15 26 -34 21 -45 92 -117 134 -137 l34 -17 -24 -15 c-13
-8 -33 -19 -44 -25 -11 -6 -14 -12 -7 -12 7 0 29 11 49 24 24 16 41 22 52 17
57 -29 189 -41 221 -21 38 23 -31 44 -160 49 -35 1 -70 26 -145 99 -52 51 -64
71 -76 116 -17 69 -5 83 85 91 105 10 234 -12 309 -52 15 -8 35 -12 44 -9 10
4 13 2 10 -7 -2 -7 8 -26 24 -41 16 -16 29 -39 29 -51 0 -24 31 -55 73 -73 31
-13 87 -16 87 -4 0 4 -20 30 -45 57 -25 28 -45 53 -45 58 0 4 -5 7 -11 7 -8 0
-7 -5 1 -15 17 -21 9 -26 -13 -10 -18 13 -18 14 0 39 10 14 26 28 36 31 37 13
156 -35 205 -82 7 -7 17 -13 21 -13 4 0 31 -18 61 -40 48 -36 70 -42 70 -20 0
4 -10 6 -22 3 -18 -5 -20 -3 -11 7 8 9 6 17 -10 33 -12 12 -25 21 -29 19 -5
-1 -8 4 -8 11 0 31 -161 127 -212 127 -11 0 -42 -11 -70 -25 -53 -27 -78 -31
-78 -15 0 6 -8 14 -17 17 -10 4 -23 12 -29 17 -37 34 -57 47 -69 43 -7 -3 -26
3 -43 13 -28 17 -33 17 -46 5 -19 -19 -27 -19 -20 0 5 11 -2 15 -27 17 -63 3
-154 3 -171 0z m172 -382 c0 -11 -4 -20 -9 -20 -5 0 -7 9 -4 20 3 11 7 20 9
20 2 0 4 -9 4 -20z"/>
<path d="M4995 4423 c-45 -5 -68 -20 -58 -36 6 -10 5 -107 -2 -229 -2 -34 2
-51 14 -62 36 -32 334 -63 365 -37 10 9 14 169 7 321 l-1 35 -77 0 c-43 1
-107 4 -143 7 -36 3 -83 4 -105 1z m233 -42 l62 0 0 -125 c0 -68 3 -131 6
-140 3 -9 1 -16 -5 -16 -6 0 -11 19 -11 45 0 25 -4 45 -10 45 -5 0 -10 -17
-10 -39 l0 -38 -52 4 c-29 2 -90 11 -135 20 l-83 16 0 113 c0 130 -5 125 105
118 39 -2 98 -4 133 -3z m-153 -277 l60 -14 -65 6 c-35 3 -71 10 -80 14 -23
14 13 12 85 -6z m173 -23 c8 -5 -8 -6 -40 -4 -73 6 -83 11 -23 12 28 0 56 -3
63 -8z"/>
<path d="M5267 4323 c-11 -10 -8 -101 3 -108 6 -4 10 17 10 54 0 62 -1 66 -13
54z"/>
<path d="M805 4394 c-17 -18 -88 -28 -292 -43 -128 -9 -180 -22 -168 -42 4 -5
17 -9 31 -9 l25 0 -2 -247 c-2 -244 5 -450 15 -461 19 -18 408 -1 432 19 18
14 16 80 -5 294 -6 55 -10 175 -11 267 l0 167 26 20 c16 13 24 27 20 36 -7 20
-50 19 -71 -1z m-1 -66 c-3 -5 -6 -107 -6 -226 0 -120 -2 -212 -4 -207 -2 6
-12 93 -23 194 -12 101 -24 187 -27 190 -7 7 -1 -56 32 -313 13 -104 27 -192
31 -195 9 -7 15 -99 7 -121 -4 -11 -7 -12 -13 -2 -6 10 -29 10 -112 2 -57 -7
-134 -14 -170 -16 l-67 -5 -8 138 c-4 76 -8 228 -8 338 l-1 200 159 7 c110 5
165 12 180 22 22 15 41 11 30 -6z m3 -495 c-3 -10 -5 -2 -5 17 0 19 2 27 5 18
2 -10 2 -26 0 -35z"/>
<path d="M1226 4344 c-31 -30 -40 -56 -24 -68 8 -6 13 -16 11 -22 -4 -11 65
-44 122 -59 17 -5 37 -10 45 -13 8 -2 36 -6 63 -9 26 -3 48 -10 48 -16 7 -57
6 -97 -2 -97 -5 0 -9 -11 -9 -25 0 -14 4 -25 8 -25 4 0 5 -27 2 -60 -3 -33 -3
-60 0 -60 4 0 5 -13 2 -30 -2 -16 -8 -30 -12 -30 -12 0 -5 -167 8 -183 7 -7 9
-17 5 -21 -10 -9 -15 -36 -15 -66 4 -98 8 -147 15 -158 5 -7 2 -14 -7 -18 -9
-3 -14 -10 -11 -14 10 -17 24 -260 15 -260 -5 0 -5 -10 5 -129 l5 -63 -25 4
c-14 3 -25 1 -25 -6 0 -8 -2 -8 -8 0 -9 13 -92 18 -92 5 0 -12 20 -18 90 -27
30 -3 66 -15 79 -26 30 -23 53 -9 33 22 -12 19 -12 36 -12 445 0 184 -5 256
-22 288 -5 9 -5 17 0 17 7 0 6 385 -2 480 -3 47 -20 62 -70 64 -25 1 -52 8
-58 14 -7 7 -22 12 -34 12 -13 0 -26 5 -30 11 -3 6 -15 9 -25 6 -11 -3 -19 -1
-19 4 0 5 -16 19 -35 30 -42 25 -43 34 -8 71 28 29 17 40 -11 12z"/>
<path d="M2668 4334 c-3 -2 -137 -6 -299 -9 -354 -5 -520 -14 -535 -26 -9 -7
-13 -128 -15 -422 -6 -691 -4 -960 10 -965 6 -2 9 -8 5 -13 -3 -5 -1 -9 5 -9
6 0 9 108 9 288 -1 322 9 874 18 999 6 81 6 82 32 82 15 1 142 3 282 5 281 5
1651 7 1688 2 30 -3 42 -22 42 -69 0 -24 4 -36 11 -32 15 10 3 104 -16 125
-20 22 -68 30 -215 36 -159 6 -1017 13 -1022 8z"/>
<path d="M3984 4180 c10 -68 18 -100 27 -100 13 0 11 19 -12 80 -16 43 -19 48
-15 20z"/>
<path d="M4016 4058 c4 -6 9 -21 10 -32 2 -12 15 -64 29 -116 14 -52 28 -120
31 -150 3 -30 11 -98 19 -150 8 -52 17 -115 19 -140 3 -25 10 -72 15 -105 6
-33 15 -94 21 -135 6 -41 24 -165 40 -275 32 -209 43 -307 44 -389 l1 -50 -66
-11 c-37 -6 -80 -7 -95 -3 -16 4 -121 12 -232 17 -112 6 -208 14 -213 17 -5 3
-60 7 -122 10 -141 5 -262 16 -452 42 -189 25 -315 37 -385 34 -30 -1 -98 3
-150 9 -52 7 -131 13 -175 15 -44 1 -80 3 -80 4 0 5 -49 9 -113 11 -40 1 -75
6 -78 10 -3 5 -15 9 -27 8 -52 -2 52 -33 133 -39 47 -4 146 -17 220 -29 74
-12 189 -23 255 -26 123 -5 191 -12 445 -46 204 -27 215 -28 394 -35 191 -8
198 -8 211 -16 6 -4 118 -8 250 -10 299 -4 299 -4 303 92 2 60 -15 194 -94
730 -15 102 -30 187 -33 190 -3 3 -7 38 -7 78 -1 39 -5 80 -9 90 -4 9 -8 42
-10 73 -4 54 -41 223 -53 244 -4 6 -7 16 -9 24 -4 27 -26 71 -35 71 -5 0 -6
-5 -2 -12z"/>
<path d="M5019 3929 c-64 -3 -125 -12 -136 -18 -27 -14 -34 -72 -38 -306 -4
-197 5 -299 28 -322 9 -10 41 -16 88 -19 41 -2 97 -6 124 -9 142 -16 203 -18
464 -18 227 1 286 4 297 15 12 11 12 55 4 268 -6 140 -12 264 -14 275 -2 11
-7 44 -11 73 -5 33 -13 56 -24 61 -19 10 -620 10 -782 0z m756 -41 c2 -2 6
-46 9 -98 3 -52 8 -126 11 -165 2 -38 6 -130 7 -204 l3 -133 -110 -5 c-186 -8
-463 -7 -615 3 l-145 9 -14 30 c-12 24 -15 83 -15 287 -1 141 2 259 6 263 14
14 235 22 541 20 175 -2 320 -5 322 -7z"/>
<path d="M4940 3851 c0 -6 7 -11 15 -11 24 0 24 -89 -1 -128 -13 -20 -13 -23
1 -29 20 -7 30 3 44 47 6 22 7 49 2 72 l-8 36 29 -10 c16 -6 158 -11 333 -12
265 -1 305 -3 305 -16 0 -16 45 -70 59 -70 5 0 9 -65 10 -144 l0 -145 -27 -3
c-34 -4 -58 -48 -42 -78 9 -17 8 -20 -7 -21 -14 0 -14 -2 -3 -6 8 -2 25 -9 37
-15 32 -16 38 -4 19 36 -19 41 -20 56 -3 56 21 0 35 -14 38 -39 5 -34 27 -38
35 -6 4 18 1 32 -12 46 -15 17 -18 39 -18 157 -1 75 2 149 7 165 6 24 5 27
-16 27 -30 0 -47 18 -47 50 l0 25 -283 0 c-269 0 -395 6 -444 21 -14 4 -23 2
-23 -5z"/>
<path d="M5305 3375 c77 -8 166 -19 198 -25 33 -6 61 -9 64 -7 11 12 -154 35
-287 41 l-115 5 140 -14z"/>
<path d="M4011 3704 c0 -11 3 -14 6 -6 3 7 2 16 -1 19 -3 4 -6 -2 -5 -13z"/>
<path d="M4032 3600 c0 -38 13 -86 19 -75 3 6 0 30 -7 55 -7 28 -12 36 -12 20z"/>
<path d="M4043 3478 c3 -18 11 -87 17 -153 13 -143 30 -277 36 -287 3 -4 10
-5 17 -2 13 5 11 94 -2 94 -4 0 -5 16 -3 36 3 24 1 34 -6 30 -6 -3 -13 -2 -17
4 -3 5 -2 10 3 10 6 0 9 19 7 43 -2 23 -4 42 -5 42 -4 0 -10 45 -14 109 -6 79
-13 106 -28 106 -6 0 -8 -13 -5 -32z"/>
<path d="M815 3439 c-16 -5 -95 -14 -174 -19 -87 -7 -155 -17 -172 -25 -15 -8
-55 -15 -89 -15 -83 0 -250 -28 -279 -47 -23 -15 -24 -16 -18 -142 4 -69 11
-169 17 -221 6 -52 10 -126 8 -165 l-3 -70 150 -5 c147 -5 476 3 585 13 62 6
151 34 162 50 6 11 4 67 -12 237 -6 58 -12 172 -16 254 -3 83 -7 153 -10 158
-7 11 -111 9 -149 -3z m127 -121 c0 -57 0 -110 0 -118 -1 -8 2 -60 8 -115 17
-171 21 -273 12 -279 -21 -13 -244 -26 -513 -30 l-297 -5 -5 77 c-2 42 -7 120
-11 172 -14 210 -15 246 -11 261 6 17 96 29 265 35 131 4 396 23 474 34 50 7
51 7 23 18 -18 8 -97 12 -219 12 -105 0 -189 2 -187 4 2 3 70 8 149 11 80 4
165 10 190 15 25 4 62 8 83 9 l37 1 2 -102z"/>
<path d="M892 3112 c3 -228 3 -233 -17 -238 -11 -3 -163 -6 -338 -7 l-317 -2
-6 35 c-11 63 -27 115 -31 102 -4 -11 7 -74 23 -134 4 -14 18 -17 87 -16 45 1
192 0 327 -2 165 -1 254 1 274 9 28 11 28 12 22 74 -3 34 -8 139 -12 232 -3
94 -8 172 -11 175 -3 3 -3 -100 -1 -228z"/>
<path d="M208 3282 c-56 -3 -58 -4 -57 -30 1 -15 3 -20 6 -11 6 25 33 29 217
29 93 0 166 3 162 8 -8 7 -217 10 -328 4z"/>
<path d="M550 3280 c0 -6 37 -10 90 -10 53 0 90 4 90 10 0 6 -37 10 -90 10
-53 0 -90 -4 -90 -10z"/>
<path d="M750 3280 c0 -5 6 -10 14 -10 8 0 18 5 21 10 3 6 -3 10 -14 10 -12 0
-21 -4 -21 -10z"/>
<path d="M160 3149 c0 -22 4 -38 8 -35 8 5 4 76 -4 76 -2 0 -4 -18 -4 -41z"/>
<path d="M170 3062 c0 -23 4 -42 9 -42 6 0 7 17 4 38 -8 51 -13 53 -13 4z"/>
<path d="M5350 3016 c-12 -11 -32 -13 -90 -7 -51 5 -85 3 -110 -5 -19 -7 -43
-13 -52 -14 -19 0 -24 -15 -8 -25 5 -3 7 -11 5 -18 -2 -7 -6 -37 -9 -67 -3
-30 -8 -86 -12 -124 -6 -60 -5 -71 11 -83 18 -12 18 -13 -3 -13 -18 0 -22 -6
-22 -32 0 -26 8 -39 36 -62 l36 -29 32 19 c25 15 53 19 135 20 93 1 106 4 112
20 4 11 8 74 8 142 1 109 3 126 22 152 26 35 20 70 -19 111 -30 32 -50 36 -72
15z m-55 -36 c3 -5 26 -10 51 -10 l44 0 0 -172 c0 -94 -3 -168 -7 -165 -3 4
-6 69 -6 145 1 75 -2 126 -6 112 -4 -14 -9 -77 -10 -140 -1 -63 -7 -119 -12
-125 -5 -5 -55 -8 -112 -7 -66 1 -95 -2 -82 -8 11 -5 34 -9 50 -10 24 -2 21
-4 -19 -13 -74 -15 -78 -6 -74 175 2 82 6 148 11 148 4 0 7 11 7 24 0 14 5 28
11 32 10 6 64 15 136 23 6 0 15 -3 18 -9z m-178 -52 c-3 -7 -5 -2 -5 12 0 14
2 19 5 13 2 -7 2 -19 0 -25z m316 19 c3 -8 1 -20 -4 -28 -6 -10 -9 -7 -9 14 0
29 5 35 13 14z m-350 -322 c-3 -9 -8 -14 -10 -11 -3 3 -2 9 2 15 9 16 15 13 8
-4z m294 -21 c-3 -3 -12 -4 -19 -1 -8 3 -5 6 6 6 11 1 17 -2 13 -5z m-230 -40
c-3 -3 -12 -4 -19 -1 -8 3 -5 6 6 6 11 1 17 -2 13 -5z"/>
<path d="M4105 2996 c-18 -13 -18 -17 3 -164 12 -83 22 -156 22 -161 0 -6 8
-11 18 -11 9 0 13 -4 7 -8 -5 -4 -11 -25 -12 -46 -1 -21 -6 -43 -11 -48 -15
-15 -78 -26 -94 -17 -8 4 -79 11 -159 14 -79 4 -166 11 -194 15 -27 5 -83 10
-124 11 -40 1 -108 8 -150 16 -42 7 -103 16 -136 19 -33 3 -103 11 -155 19
-52 7 -158 19 -235 25 -77 6 -187 17 -245 25 -58 8 -143 17 -190 20 -171 10
-386 26 -415 30 -16 2 -64 4 -105 4 l-75 1 -3 62 c-1 34 -7 67 -13 73 -14 12
-5 -133 8 -146 12 -12 346 -45 548 -54 66 -3 170 -12 230 -20 61 -8 169 -19
240 -24 72 -6 140 -13 152 -15 12 -3 93 -12 180 -20 87 -9 185 -20 218 -26 33
-5 101 -12 150 -15 50 -3 153 -11 230 -16 285 -20 319 -20 345 -7 36 19 42 66
25 193 -16 112 -31 165 -46 165 -5 0 -9 5 -9 10 0 6 6 9 13 8 8 -2 11 8 11 27
-2 29 -7 75 -9 75 -1 0 -10 -6 -20 -14z"/>
<path d="M1276 2905 c-8 -8 -18 -15 -22 -15 -15 0 -74 -73 -74 -91 0 -10 -9
-21 -20 -24 -26 -8 -26 -25 -1 -25 11 0 23 9 26 20 3 11 12 20 18 20 8 0 7 3
-2 9 -11 7 -9 10 8 16 11 3 21 15 21 25 0 10 9 21 19 25 11 3 26 17 35 30 18
28 15 32 -8 10z"/>
<path d="M1150 2732 c0 -7 -6 -12 -13 -12 -6 0 -18 -14 -26 -31 -11 -26 -11
-33 0 -39 18 -12 29 -3 29 21 0 11 5 29 11 41 6 11 8 22 5 26 -3 3 -6 0 -6 -6z"/>
<path d="M1110 2620 c0 -5 5 -10 10 -10 6 0 10 5 10 10 0 6 -4 10 -10 10 -5 0
-10 -4 -10 -10z"/>
<path d="M1089 2581 c7 -5 11 -14 7 -19 -8 -14 26 -93 38 -89 19 6 16 25 -5
30 -18 5 -20 9 -10 21 8 10 9 16 1 21 -8 5 -8 11 -1 19 13 16 4 26 -23 26 -16
0 -18 -2 -7 -9z"/>
<path d="M1575 2563 c-37 -10 -64 -35 -71 -66 -9 -40 -6 -89 6 -101 12 -12 13
-29 1 -22 -5 3 -33 -2 -62 -10 -34 -10 -71 -14 -101 -11 -47 6 -73 -5 -42 -17
27 -10 86 -6 144 9 69 19 80 19 80 0 0 -8 7 -15 16 -15 8 0 13 -4 10 -9 -8
-12 48 -71 67 -71 21 0 9 51 -13 57 -11 3 -22 22 -29 49 -11 45 -11 45 34 103
49 63 54 77 28 97 -19 14 -34 15 -68 7z m37 -58 c3 -13 1 -22 -4 -19 -5 3 -18
-2 -29 -12 -18 -16 -19 -16 -19 0 0 25 19 56 34 56 8 0 16 -11 18 -25z"/>
<path d="M1858 2471 c-23 -23 -24 -117 -3 -167 8 -20 13 -40 10 -44 -9 -14
-57 -18 -124 -9 -52 6 -69 5 -81 -7 -12 -12 -12 -14 8 -16 12 -1 36 -3 52 -4
68 -7 117 -5 145 6 19 7 31 8 33 1 8 -25 48 -63 85 -82 54 -28 161 -31 198 -6
42 28 61 83 57 166 -3 68 -2 72 17 66 25 -7 131 -19 350 -40 94 -9 233 -25
310 -35 177 -24 477 -40 806 -43 l257 -2 0 22 c0 19 -6 22 -65 25 -36 2 -71
-1 -79 -5 -8 -4 -14 -4 -14 1 0 5 -118 8 -262 8 -252 0 -473 8 -521 19 -12 3
-38 7 -57 9 -19 2 -71 9 -115 15 -44 5 -123 13 -175 16 -51 3 -103 8 -115 10
-11 2 -59 7 -107 10 -106 6 -224 22 -260 36 -41 16 -50 4 -28 -37 11 -19 20
-48 20 -64 0 -19 6 -30 18 -33 14 -4 14 -5 1 -6 -11 -1 -20 -19 -28 -55 -11
-49 -16 -56 -44 -65 -76 -23 -153 3 -202 68 l-24 34 19 25 c14 17 20 40 20 78
0 68 -15 100 -53 114 -16 5 -30 10 -31 9 -1 0 -9 -8 -18 -18z m41 -34 c16 -40
21 -95 12 -119 -8 -22 -8 -22 -19 -3 -5 11 -11 38 -12 60 -4 86 2 106 19 62z"/>
<path d="M1156 2464 c-11 -30 48 -90 74 -74 11 7 5 18 -27 49 -33 33 -42 38
-47 25z"/>
<path d="M1234 2379 c-6 -10 11 -28 27 -29 15 0 17 29 3 34 -21 8 -22 8 -30
-5z"/>
<path d="M502 2240 c-34 -21 -60 -68 -69 -125 -10 -60 55 -145 109 -145 10 0
14 -52 15 -243 2 -133 6 -298 9 -367 3 -69 7 -153 8 -187 l2 -63 -66 0 c-54 0
-70 -4 -95 -24 l-30 -24 24 -21 c23 -20 36 -21 160 -20 158 1 198 6 205 25 8
22 -19 41 -71 50 -26 4 -51 8 -55 10 -5 1 -14 2 -21 3 -10 1 -13 85 -14 420
l0 420 21 -14 c11 -8 64 -28 116 -45 52 -16 115 -40 140 -51 25 -12 56 -25 70
-30 14 -4 63 -22 110 -39 47 -17 94 -33 105 -36 11 -3 47 -16 80 -29 91 -34
190 -65 212 -65 10 0 23 -4 29 -10 5 -5 26 -11 47 -12 20 -2 37 -6 37 -10 0
-3 21 -8 48 -11 26 -2 76 -11 112 -20 143 -33 449 -69 585 -69 152 1 391 -1
430 -2 28 -1 66 2 85 5 19 4 114 10 210 14 96 3 202 8 235 11 33 2 101 6 150
9 50 3 117 10 150 15 33 6 103 15 155 20 179 19 195 21 230 30 19 6 51 10 70
10 20 0 40 4 45 8 6 5 44 15 85 22 41 7 104 22 140 33 105 31 291 94 345 116
134 55 381 142 442 156 56 13 75 14 106 4 l37 -12 -5 -106 c-3 -58 -10 -200
-16 -316 -12 -235 -17 -350 -18 -412 l-1 -43 -40 0 c-51 0 -110 -24 -110 -44
0 -9 3 -16 8 -17 78 -5 362 -3 375 3 9 5 17 15 17 23 0 17 -38 45 -54 39 -7
-3 -29 2 -49 11 -20 8 -53 15 -73 15 l-36 0 7 48 c4 26 8 54 7 62 0 8 6 94 13
190 8 96 17 263 20 370 7 178 9 197 28 217 11 13 18 26 14 29 -3 3 3 22 13 42
33 66 35 98 6 127 -27 27 -51 30 -109 14 -68 -19 -117 -100 -98 -166 l9 -30
-80 -12 c-74 -11 -129 -27 -238 -66 -25 -9 -52 -19 -60 -21 -21 -5 -411 -135
-435 -145 -26 -10 -196 -44 -315 -63 -224 -35 -313 -46 -514 -62 -33 -3 -74
-7 -91 -9 -16 -2 -94 -6 -173 -9 -79 -3 -146 -7 -150 -10 -6 -3 -563 -20 -597
-18 -5 1 -75 3 -155 6 -203 6 -336 15 -400 26 -30 6 -95 17 -145 26 -49 9
-124 22 -165 30 -41 8 -82 16 -90 17 -8 1 -21 6 -28 11 -7 4 -16 6 -19 3 -3
-3 -16 -2 -30 4 -13 5 -38 11 -55 14 -17 3 -70 19 -117 36 -47 17 -149 51
-226 76 -77 25 -156 52 -175 60 -63 27 -74 31 -125 44 -27 7 -59 18 -70 26
-20 13 -20 14 0 19 30 8 51 44 33 55 -10 7 -9 9 5 9 36 0 7 102 -44 151 -61
60 -130 74 -187 39z m116 -24 c38 -20 68 -55 87 -100 21 -49 13 -81 -25 -101
-38 -20 -60 -19 -76 3 -12 16 -14 16 -30 0 -15 -15 -20 -15 -45 -2 -60 31 -76
98 -38 160 34 55 74 68 127 40z m4711 -54 c25 -46 -9 -113 -75 -147 -33 -17
-60 -6 -74 31 -13 33 14 100 49 119 37 20 88 19 100 -3z m-72 -534 c-3 -7 -5
-2 -5 12 0 14 2 19 5 13 2 -7 2 -19 0 -25z"/>
</g>
</svg>
