<svg fill="#878787" xmlns="http://www.w3.org/2000/svg" viewBox="0 0 40 112" preserveAspectRatio="xMinYMin slice" style="height: 100%;"><path d="m33.68 9.197-5.809-5.818A11.505 11.505 0 0 0 19.733 0a11.487 11.487 0 0 0-8.139 3.379L5.785 9.197a3.296 3.296 0 0 0-.714 3.592c.166.4.408.764.714 1.07l5.81 5.829a11.504 11.504 0 0 0 8.138 3.379 11.486 11.486 0 0 0 8.138-3.38l5.81-5.82a3.292 3.292 0 0 0 0-4.67ZM19.734 19.764a8.21 8.21 0 0 1-4.568-1.387 8.25 8.25 0 0 1-1.246-12.673 8.215 8.215 0 0 1 8.96-1.784 8.223 8.223 0 0 1 3.688 3.036 8.247 8.247 0 0 1-1.026 10.396 8.212 8.212 0 0 1-5.808 2.412Z"/><path d="M19.733 7.41a4.103 4.103 0 0 0-3.793 2.542 4.124 4.124 0 0 0 .89 4.485 4.106 4.106 0 0 0 7.014-2.905 4.123 4.123 0 0 0-2.537-3.809 4.102 4.102 0 0 0-1.574-.313ZM6.2 72.99a1.658 1.658 0 0 0-.454-.897l-3.811-3.816a6.59 6.59 0 0 1-1.847-5.742l4.21-25.174a13.177 13.177 0 0 1 4.472-7.887 13.13 13.13 0 0 1 8.502-3.119h4.939a13.132 13.132 0 0 1 8.5 3.12 13.18 13.18 0 0 1 4.474 7.886l4.193 25.174a6.609 6.609 0 0 1-1.836 5.742l-3.81 3.816a1.665 1.665 0 0 0-.461.897l-6.494 39.008h-2.11a3.29 3.29 0 0 1-2.325-.962 3.304 3.304 0 0 1-.965-2.328V80.705a1.65 1.65 0 0 0-1.644-1.647 1.643 1.643 0 0 0-1.645 1.647v28.006a3.3 3.3 0 0 1-.962 2.327 3.273 3.273 0 0 1-2.324.963h-2.11L6.2 72.99Z"/></svg>