<svg fill="none" xmlns="http://www.w3.org/2000/svg" viewBox="0 0 14 14"><path d="M2.06086 13.4969C1.1999 13.4969 0.501953 12.7989 0.501953 11.938V8.42819C0.501953 7.56724 1.1999 6.86929 2.06086 6.86929C2.92181 6.86929 3.61976 7.56723 3.61976 8.42819V11.938C3.61976 12.7989 2.92181 13.4969 2.06086 13.4969ZM6.99831 13.4969C6.14037 13.4969 5.44488 12.8014 5.44488 11.9434V2.05029C5.44488 1.19235 6.14037 0.496857 6.99831 0.496857C7.85624 0.496857 8.55173 1.19235 8.55173 2.05029V11.9434C8.55173 12.8014 7.85624 13.4969 6.99831 13.4969ZM11.9394 13.4969C11.0764 13.4969 10.3769 12.7973 10.3769 11.9343V5.92828C10.3769 5.0653 11.0764 4.36573 11.9394 4.36573C12.8024 4.36573 13.502 5.0653 13.502 5.92828V11.9343C13.502 12.7973 12.8024 13.4969 11.9394 13.4969Z" fill="#9b9b9b"/></svg>