<?xml version="1.0" standalone="no"?>
<!DOCTYPE svg PUBLIC "-//W3C//DTD SVG 20010904//EN"
 "http://www.w3.org/TR/2001/REC-SVG-20010904/DTD/svg10.dtd">
<svg version="1.0" xmlns="http://www.w3.org/2000/svg"
 width="600.000000pt" height="600.000000pt" viewBox="0 0 600.000000 600.000000"
 preserveAspectRatio="xMidYMid meet">

<g transform="translate(0.000000,600.000000) scale(0.100000,-0.100000)"
fill="#eeeeee" stroke="none">
<path d="M2936 5253 c-10 -10 -7 -43 4 -43 6 0 15 -11 20 -26 6 -14 23 -42 38
-62 16 -20 37 -57 47 -82 10 -25 25 -52 32 -61 7 -8 13 -23 13 -32 0 -9 5 -17
10 -17 6 0 10 -8 10 -18 0 -10 7 -27 15 -38 8 -10 15 -28 15 -39 0 -11 7 -29
15 -39 8 -11 15 -29 15 -40 0 -11 7 -28 17 -38 9 -10 16 -31 15 -47 0 -18 8
-37 24 -52 17 -16 21 -25 12 -30 -8 -5 -9 -12 -2 -21 6 -7 11 -26 12 -42 1
-17 5 -32 10 -35 7 -6 10 -20 13 -76 2 -16 4 -34 7 -38 9 -19 11 -187 2 -247
-10 -61 -13 -68 -62 -112 -78 -70 -102 -71 -220 -11 -16 8 -28 11 -28 7 0 -22
-130 134 -143 172 -5 13 -13 21 -18 18 -6 -3 -3 -16 7 -31 18 -28 16 -28 -38
-1 -47 23 -48 65 -1 53 18 -4 24 -2 21 7 -6 18 -46 22 -64 8 -7 -7 -14 -27
-14 -45 0 -26 8 -39 32 -59 24 -18 35 -22 41 -13 6 8 7 6 3 -5 -3 -11 8 -29
33 -53 29 -27 41 -50 50 -89 6 -29 9 -60 6 -68 -4 -9 -3 -18 2 -21 10 -6 6
-185 -5 -247 -11 -60 -21 -76 -91 -142 -87 -83 -149 -94 -237 -43 -24 14 -44
23 -44 20 0 -6 -118 72 -138 92 -8 7 -22 18 -33 23 -26 14 -35 -9 -20 -51 6
-17 14 -79 17 -138 5 -83 3 -120 -10 -171 -10 -36 -19 -78 -21 -94 -2 -17 -13
-42 -25 -57 -11 -16 -20 -32 -20 -37 0 -24 -48 -50 -96 -54 -70 -4 -76 5 -75
113 1 151 -26 359 -73 560 -15 63 -69 255 -76 268 -21 43 -40 93 -40 106 0 8
-4 15 -10 15 -5 0 -10 5 -10 10 0 16 -68 157 -99 204 -67 104 -264 286 -310
286 -8 0 -22 6 -30 14 -15 13 -86 41 -136 53 -130 31 -308 22 -391 -22 -16 -8
-34 -15 -40 -15 -7 0 -32 -11 -55 -25 -24 -14 -51 -25 -60 -25 -9 0 -27 -10
-41 -22 -13 -13 -51 -45 -84 -73 -63 -53 -109 -102 -149 -156 -38 -54 -114
-200 -126 -244 -7 -22 -20 -59 -30 -82 -10 -23 -28 -77 -39 -119 -12 -43 -23
-81 -25 -84 -5 -9 -33 -193 -46 -300 -32 -276 -39 -384 -39 -555 1 -179 2
-224 13 -370 6 -92 25 -243 31 -253 2 -4 8 -44 11 -87 3 -43 8 -81 10 -85 2
-4 11 -67 20 -141 9 -74 22 -152 29 -174 13 -38 24 -79 45 -177 6 -24 13 -56
17 -73 3 -16 8 -39 9 -50 2 -11 10 -38 20 -60 9 -22 23 -62 32 -88 13 -43 88
-208 113 -247 6 -8 21 -35 35 -60 32 -56 62 -98 114 -158 23 -26 41 -51 41
-57 0 -5 11 -17 23 -26 102 -73 158 -109 170 -109 8 0 20 -7 27 -14 6 -8 28
-20 48 -27 20 -6 52 -20 70 -30 18 -10 43 -21 55 -23 12 -3 33 -8 47 -11 88
-24 234 -32 335 -20 33 4 74 8 90 10 92 8 319 139 419 240 68 69 139 149 170
190 18 23 43 53 56 66 12 13 47 58 78 99 102 137 196 254 255 317 33 34 65 71
73 82 31 43 191 117 275 127 111 13 214 -93 162 -165 -11 -14 -22 -33 -26 -41
-4 -8 -25 -44 -47 -79 -22 -34 -40 -67 -40 -71 0 -10 -62 -103 -94 -141 -43
-51 -84 -132 -121 -242 -20 -60 -35 -111 -31 -114 14 -14 40 14 101 105 36 55
65 104 65 111 0 6 4 11 9 11 8 0 53 62 168 228 45 65 81 145 88 195 4 23 14
53 23 67 52 81 236 276 287 304 17 9 44 25 60 36 77 49 193 101 242 109 85 13
112 -2 129 -69 4 -17 -43 -147 -57 -156 -10 -6 -1 -52 14 -72 8 -10 12 -9 22
5 38 54 65 117 76 174 14 78 0 122 -54 163 -33 25 -39 26 -124 22 -103 -5
-156 -26 -287 -114 -43 -28 -81 -52 -85 -52 -4 0 -13 -10 -21 -21 -8 -12 -21
-27 -28 -33 -31 -26 -50 -46 -107 -110 -33 -37 -64 -76 -69 -86 -15 -33 -33
-29 -64 15 -39 55 -101 89 -162 87 -63 -2 -92 -7 -115 -20 -11 -6 -41 -20 -66
-31 -60 -28 -259 -213 -336 -313 -94 -123 -174 -221 -227 -278 -34 -36 -86
-92 -117 -125 -90 -96 -207 -197 -268 -232 -115 -65 -138 -75 -221 -93 -106
-24 -313 -22 -404 4 -93 26 -207 74 -253 106 -23 17 -44 30 -48 30 -33 0 -195
179 -247 272 -9 16 -23 37 -32 47 -9 10 -16 23 -16 29 0 7 -4 20 -9 30 -51
100 -109 250 -117 304 -4 24 -11 51 -16 61 -5 10 -12 31 -14 45 -3 15 -9 31
-13 37 -5 5 -12 35 -16 65 -4 30 -11 62 -16 71 -13 25 -46 203 -59 319 -6 58
-16 137 -22 175 -5 39 -14 104 -19 145 -5 41 -12 98 -16 125 -10 80 -12 593
-2 670 25 199 29 232 33 260 3 17 13 82 22 145 17 119 55 281 80 338 8 18 14
39 14 47 0 27 89 201 141 277 11 15 19 36 19 48 0 11 5 20 11 20 5 0 7 -5 3
-12 -9 -15 13 -1 46 28 14 13 44 38 67 58 27 21 38 36 30 39 -6 3 -3 6 8 6 11
1 29 7 40 15 11 7 31 17 45 21 14 4 48 19 75 32 90 44 250 59 366 34 45 -10
149 -56 244 -108 55 -30 255 -256 255 -288 0 -11 42 -100 50 -105 4 -3 13 -23
20 -45 7 -22 16 -44 19 -50 9 -12 51 -127 79 -215 28 -88 70 -299 86 -430 9
-72 18 -260 14 -260 -3 0 -23 27 -44 61 -22 33 -76 100 -122 149 -64 68 -97
95 -150 120 -102 49 -199 71 -313 71 l-99 1 0 51 c0 67 -15 93 -29 54 -6 -16
-11 -40 -11 -55 0 -39 -11 -72 -23 -72 -17 0 -99 -41 -137 -69 -102 -75 -190
-218 -209 -343 -11 -71 -25 -180 -24 -188 1 -3 4 -41 7 -84 3 -43 10 -84 16
-91 6 -8 10 -19 9 -27 -3 -16 18 -97 31 -120 6 -10 10 -25 10 -33 0 -8 4 -23
9 -33 5 -9 17 -37 26 -62 47 -126 177 -367 223 -416 11 -11 27 -34 35 -50 16
-29 210 -234 222 -234 7 0 87 -63 117 -93 10 -9 23 -17 30 -17 6 0 40 -14 75
-30 34 -16 70 -30 79 -30 8 0 23 -4 32 -9 9 -5 58 -11 108 -14 214 -13 388 50
537 195 67 66 92 99 121 159 21 45 36 92 37 115 0 40 16 130 18 106 2 -26 77
-85 146 -117 95 -44 184 -42 291 6 54 24 174 138 174 166 0 11 6 23 13 26 37
14 94 260 65 278 -6 4 -7 9 -1 12 6 4 37 -18 69 -49 60 -56 103 -82 184 -112
54 -20 297 -25 321 -6 12 10 44 21 84 29 17 4 120 68 123 77 2 5 20 17 40 27
21 11 53 35 71 55 19 20 40 36 45 36 6 0 33 27 60 60 27 32 55 61 62 64 8 3
11 12 8 21 -3 8 -1 15 5 15 21 0 122 219 149 325 47 177 47 178 47 375 0 216
-9 340 -29 415 l-14 50 47 22 c25 13 73 35 106 51 119 56 252 126 370 194 152
88 138 79 220 130 39 24 81 49 95 55 14 7 50 27 80 44 30 17 121 67 203 112
81 45 147 85 147 89 0 20 -47 3 -166 -58 -71 -36 -134 -70 -139 -74 -6 -5 -42
-25 -80 -45 -97 -49 -142 -75 -206 -118 -31 -20 -59 -37 -63 -37 -4 0 -19 -8
-34 -18 -85 -59 -288 -171 -426 -237 -87 -41 -160 -74 -161 -73 0 2 -6 20 -12
40 -10 35 -9 39 12 50 13 7 59 32 102 55 43 22 105 57 138 77 33 19 91 51 129
71 38 20 101 55 139 78 37 23 98 58 134 78 36 19 71 42 77 50 6 8 21 15 34 16
12 1 35 10 50 21 15 11 70 44 122 73 52 30 102 58 111 64 9 5 36 21 60 34 83
45 284 163 293 172 15 14 -25 23 -46 10 -11 -7 -38 -22 -61 -33 -86 -43 -136
-79 -130 -94 3 -8 0 -14 -7 -14 -8 0 -11 9 -8 25 6 29 2 30 -46 10 -20 -9 -34
-20 -31 -25 3 -6 -1 -7 -10 -4 -8 4 -21 2 -28 -3 -6 -6 -48 -29 -92 -53 -44
-24 -132 -73 -195 -110 -63 -37 -158 -89 -210 -116 -52 -26 -97 -50 -100 -53
-3 -4 -59 -33 -125 -66 -66 -33 -123 -64 -126 -68 -3 -5 -9 -8 -13 -7 -4 1
-42 -18 -84 -43 -125 -74 -131 -75 -153 -47 -10 14 -19 27 -19 30 0 3 55 32
123 64 67 32 169 81 227 108 172 82 395 192 400 199 5 5 38 24 195 108 28 15
104 56 170 90 66 35 136 73 155 85 19 11 53 31 75 42 36 20 60 54 38 54 -9 0
-350 -171 -498 -250 -44 -23 -152 -80 -241 -126 -118 -61 -158 -86 -150 -94 8
-8 4 -10 -15 -5 -19 5 -44 -2 -83 -20 -30 -14 -58 -30 -61 -34 -2 -5 -20 -12
-39 -15 -19 -4 -39 -13 -46 -21 -7 -8 -17 -15 -22 -15 -11 0 -42 -13 -175 -77
l-92 -43 -35 21 c-46 27 -77 22 -95 -16 l-14 -30 -10 30 c-21 67 -104 114
-121 69 -9 -25 -8 -27 18 -20 32 8 64 -35 72 -96 l6 -44 -98 -47 c-61 -30
-101 -44 -107 -38 -10 10 1 91 13 91 11 0 80 91 80 107 0 29 -22 10 -67 -57
l-46 -70 -15 31 c-16 32 -55 54 -79 44 -18 -6 -75 -130 -98 -210 l-18 -60 -21
48 c-27 58 -50 76 -99 77 -50 0 -91 -24 -111 -66 -20 -43 -46 -155 -46 -200 0
-31 -5 -37 -55 -66 -31 -18 -79 -47 -108 -65 -29 -18 -59 -35 -67 -39 -8 -4
-44 -26 -80 -49 -36 -22 -85 -52 -110 -66 -25 -13 -47 -26 -50 -29 -6 -6 -21
-15 -96 -60 -29 -16 -57 -37 -64 -45 -7 -8 -18 -15 -25 -15 -18 0 -178 -86
-215 -115 -8 -7 -40 -26 -71 -43 -64 -34 -111 -63 -119 -73 -3 -3 -21 -14 -40
-24 -19 -10 -56 -33 -83 -51 -26 -19 -50 -34 -55 -34 -4 0 -32 -17 -63 -38
-31 -20 -70 -45 -85 -55 -75 -45 -105 -66 -183 -124 l-84 -63 -42 39 c-68 63
-115 82 -167 68 -38 -10 -35 -27 5 -27 18 0 44 -8 57 -17 40 -28 100 -85 100
-96 0 -6 -9 -2 -20 8 -21 19 -28 7 -8 -13 6 -6 10 -13 7 -14 -2 -2 -33 -23
-68 -47 -69 -47 -80 -45 -82 14 0 17 -2 39 -4 50 -6 32 21 65 55 65 16 0 32
-4 35 -10 3 -5 13 -10 22 -10 11 0 9 5 -8 19 -53 41 -105 35 -144 -17 -16 -21
-19 -39 -16 -82 8 -124 8 -121 -24 -139 -46 -25 -95 -61 -95 -71 0 -5 34 9 75
31 41 22 75 37 75 32 0 -4 -25 -21 -56 -38 -55 -30 -97 -65 -77 -65 6 0 37 16
69 35 32 19 60 35 64 35 3 0 11 -10 19 -22 13 -21 10 -25 -39 -71 -29 -26 -50
-50 -48 -53 3 -2 29 12 59 32 l53 36 18 -22 c31 -38 23 -57 -32 -81 -56 -24
-78 -45 -63 -60 6 -6 33 3 76 26 l66 35 30 -43 c65 -95 145 -143 217 -132 65
9 89 47 80 128 -8 82 -10 92 -35 162 l-21 60 20 15 c11 8 75 46 142 84 68 39
166 97 218 131 52 34 133 85 180 115 47 29 114 72 150 95 36 23 85 54 110 67
25 14 77 43 115 65 39 22 115 64 170 93 223 118 272 145 323 177 29 18 57 33
62 33 5 0 12 5 16 12 17 27 -67 -3 -166 -60 -58 -32 -136 -76 -175 -96 -38
-20 -83 -44 -100 -54 -16 -9 -70 -39 -119 -65 -49 -27 -112 -63 -140 -81 -28
-19 -107 -68 -176 -111 -69 -43 -135 -87 -148 -98 -12 -12 -29 -22 -37 -23 -9
-1 -39 -18 -68 -36 -28 -19 -98 -61 -155 -94 -57 -32 -132 -78 -167 -101 l-65
-43 -13 33 c-12 29 -12 33 7 47 22 17 224 130 231 130 2 0 44 24 92 53 48 29
105 61 126 72 20 11 37 25 37 32 0 7 6 10 13 7 7 -2 51 20 97 50 47 30 114 72
149 93 35 21 66 44 68 50 3 7 10 13 17 13 6 0 40 20 76 43 114 76 161 107 165
107 2 0 28 14 57 31 136 81 397 219 412 219 4 0 5 -4 2 -9 -4 -5 -2 -11 3 -13
5 -1 6 -17 4 -35 -3 -21 -10 -30 -18 -27 -7 3 -16 1 -19 -4 -7 -11 21 -25 34
-17 5 3 14 -13 20 -35 6 -23 20 -50 32 -62 18 -18 22 -18 35 -6 12 13 12 22
-6 69 -25 66 -26 76 -3 83 9 3 31 19 49 36 18 16 40 30 50 30 11 0 24 5 31 12
19 19 26 2 32 -80 6 -87 17 -85 24 4 2 33 6 66 9 74 3 8 8 23 11 32 3 9 28 29
56 43 l50 25 1 -112 c2 -209 44 -309 63 -148 2 19 14 91 26 160 12 69 23 134
24 144 1 19 96 85 122 86 8 0 13 -44 16 -137 5 -140 19 -203 44 -203 8 0 15 3
15 8 1 4 3 16 4 27 2 11 8 58 15 105 18 133 29 223 30 246 0 16 20 30 92 63
102 47 129 53 133 31 2 -8 7 -33 13 -55 41 -153 40 -472 -2 -647 -44 -184 -66
-236 -153 -370 -41 -63 -137 -168 -154 -168 -4 0 -34 -22 -66 -50 -32 -27 -74
-57 -93 -66 -19 -9 -54 -25 -77 -36 -110 -51 -328 -70 -398 -34 -16 8 -32 13
-37 10 -4 -3 -23 6 -41 20 -19 15 -39 26 -45 26 -7 0 -12 3 -12 8 0 4 -20 30
-45 57 -38 43 -45 56 -46 95 -1 83 -20 148 -49 175 -16 15 -21 15 -33 3 -19
-18 -12 -150 10 -192 21 -40 23 -59 8 -128 -7 -34 -8 -63 -3 -72 5 -9 5 -16 1
-16 -5 0 -15 -21 -22 -47 -20 -78 -51 -130 -114 -193 -85 -85 -131 -105 -237
-105 -68 0 -93 5 -125 22 -73 39 -135 117 -164 205 -14 42 -28 68 -37 68 -17
0 -18 -39 -3 -124 10 -53 8 -73 -10 -148 -11 -49 -32 -111 -46 -139 -30 -58
-144 -177 -195 -203 -236 -121 -518 -119 -678 5 -110 85 -233 209 -326 329
-36 47 -71 90 -76 97 -6 7 -10 18 -10 24 0 7 -11 27 -25 45 -49 64 -124 230
-151 333 -8 30 -19 60 -24 66 -5 6 -15 36 -21 66 -6 30 -16 59 -21 66 -11 13
-13 224 -3 308 9 78 66 195 119 249 22 23 66 56 96 73 l55 32 1 -182 c1 -217
6 -253 52 -345 30 -59 105 -90 145 -59 19 14 49 82 67 155 8 28 16 52 19 52 4
0 12 -12 19 -27 19 -43 79 -121 106 -138 54 -35 120 -14 153 50 29 55 33 65
33 82 0 11 10 1 25 -23 30 -51 83 -79 133 -70 40 6 82 41 82 68 0 19 15 24 25
8 7 -11 64 -8 83 4 5 3 12 1 14 -5 3 -8 9 -6 20 5 10 10 19 12 23 6 8 -13 77
43 109 89 25 36 28 46 48 156 14 82 13 233 -3 262 -10 18 -10 26 -1 35 9 9 12
6 12 -13 0 -20 10 -30 48 -49 26 -14 52 -23 58 -22 7 1 14 -4 18 -13 4 -12 23
-15 85 -15 44 0 82 4 85 9 3 5 15 7 26 4 12 -3 29 2 40 12 11 10 29 19 39 20
24 2 53 24 45 36 -3 5 0 9 7 9 15 0 69 59 69 76 0 7 5 14 11 16 16 5 39 130
35 195 -2 32 -7 91 -11 131 -7 69 -7 72 14 72 11 0 21 -4 21 -10 0 -6 9 -6 23
-1 12 4 33 5 47 1 36 -10 103 1 116 18 6 8 16 12 22 8 7 -4 12 -3 12 2 0 5 20
13 45 16 25 4 45 12 45 17 0 5 9 19 20 31 11 12 20 29 20 39 0 9 7 20 16 23
11 4 15 18 14 53 -1 27 -1 50 0 53 10 26 6 162 -6 230 -21 115 -67 250 -84
250 -4 0 -10 20 -12 44 -3 24 -15 66 -28 93 -61 132 -84 175 -97 180 -7 3 -13
13 -13 23 0 10 -7 23 -15 30 -8 7 -15 19 -15 26 0 8 -9 19 -20 26 -11 7 -20
18 -20 24 0 6 -10 20 -22 31 -13 11 -29 29 -37 41 -19 27 -67 63 -75 55z
m2618 -688 c-4 -8 -13 -15 -22 -15 -13 0 -12 3 4 15 24 18 25 18 18 0z m-64
-29 c0 -2 -26 -19 -57 -37 -32 -18 -67 -39 -78 -45 -68 -40 -349 -194 -353
-194 -3 0 -13 -6 -21 -14 -9 -8 -56 -35 -106 -62 -116 -61 -162 -86 -205 -111
-131 -76 -176 -100 -180 -96 -3 3 2 9 10 14 8 5 55 34 105 65 49 30 146 85
215 121 69 36 168 88 220 115 52 28 142 77 200 111 98 57 242 136 248 137 1 0
2 -2 2 -4z m-1169 -416 c10 -6 19 -14 19 -18 0 -9 -70 -45 -76 -39 -6 6 20 67
29 67 5 0 17 -5 28 -10z m-391 -79 c15 -29 30 -108 24 -125 -3 -8 -14 -18 -24
-21 -12 -4 -16 -12 -13 -25 6 -21 -7 -26 -23 -10 -6 6 -19 4 -38 -5 -16 -8
-32 -15 -36 -15 -12 0 7 61 41 133 16 34 24 64 19 65 -16 6 -4 17 19 19 12 1
25 -6 31 -16z m462 -8 c29 -34 27 -48 -6 -62 -17 -7 -48 -24 -69 -38 -21 -13
-42 -21 -46 -19 -5 3 -9 24 -9 46 -1 39 1 42 51 65 63 29 60 29 79 8z m-1426
-57 c3 -23 -20 -15 -24 8 -3 11 1 17 9 14 7 -2 13 -12 15 -22z m1224 -68 c-12
-53 -13 -53 -84 -86 -39 -18 -74 -32 -78 -32 -5 0 -8 21 -8 48 l0 47 88 42
c48 22 89 39 91 37 2 -2 -2 -28 -9 -56z m218 19 c-16 -12 -55 -37 -89 -55 -47
-26 -60 -30 -57 -17 1 9 39 36 83 60 82 44 111 50 63 12z m-717 -35 c12 -11
28 -38 35 -61 11 -37 10 -43 -4 -49 -36 -13 -112 -75 -112 -90 0 -14 -2 -14
-9 -3 -6 10 -13 11 -29 2 -30 -16 -31 -15 -22 27 5 20 10 53 12 72 7 66 47
117 94 119 7 1 22 -7 35 -17z m772 -29 c4 -20 5 -37 4 -38 -1 0 -45 -20 -97
-43 -52 -23 -98 -42 -102 -42 -5 0 -8 10 -8 23 0 17 15 31 58 57 31 19 69 40
83 47 15 6 30 16 33 22 13 20 23 11 29 -26z m-491 -100 c-6 -20 -34 -16 -29 5
3 9 9 35 13 57 l8 40 6 -45 c3 -25 4 -51 2 -57z m-47 11 c-6 -42 -9 -46 -67
-75 -33 -17 -62 -28 -65 -25 -3 2 -5 21 -5 41 0 35 15 65 33 65 5 0 30 13 57
30 26 16 49 25 51 19 1 -6 0 -30 -4 -55z m305 57 c0 -12 -29 -35 -36 -28 -11
10 5 37 21 37 8 0 15 -4 15 -9z m-76 -52 c-9 -10 -21 -19 -26 -19 -5 0 -27
-12 -51 -27 -48 -30 -52 -31 -53 -2 -1 16 11 26 55 45 31 13 63 28 71 33 22
13 25 -7 4 -30z m62 -65 c-8 -21 -36 -17 -36 6 0 24 33 46 38 24 2 -8 1 -22
-2 -30z m-457 7 c9 -6 10 -11 2 -15 -6 -4 -11 -20 -11 -35 0 -21 -8 -31 -35
-44 -58 -28 -43 -47 18 -22 14 6 17 2 17 -23 0 -27 -7 -34 -55 -59 -31 -15
-75 -38 -98 -50 -55 -29 -57 -28 -57 7 0 26 7 33 60 60 33 17 60 35 60 40 0
16 -17 12 -70 -15 -60 -30 -58 -30 -55 -2 1 12 3 29 4 38 0 9 9 19 19 23 9 3
53 28 97 55 90 56 85 54 104 42z m394 -22 c-4 -20 -19 -33 -69 -57 -56 -28
-64 -30 -64 -14 0 12 24 33 68 59 37 22 68 40 69 39 1 0 -1 -13 -4 -27z m-178
-6 c-11 -44 -45 -59 -45 -20 0 26 17 47 38 47 10 0 12 -7 7 -27z m-65 -31 c0
-21 -7 -32 -26 -40 -14 -7 -22 -17 -19 -22 3 -6 -1 -7 -10 -4 -8 4 -22 1 -30
-6 -18 -15 -20 -13 -29 17 -6 19 1 26 51 52 32 17 59 30 61 31 1 0 2 -13 2
-28z m310 -4 c0 -7 -7 -76 -15 -153 -8 -77 -15 -147 -16 -155 -5 -51 -17 66
-18 172 -1 111 1 128 17 137 23 14 32 13 32 -1z m-260 -83 c-7 -8 -19 -15 -26
-15 -22 0 -16 27 9 45 20 14 22 14 25 0 2 -9 -2 -22 -8 -30z m-486 -76 c-9
-10 -44 -32 -78 -48 -33 -17 -101 -54 -151 -83 -49 -29 -117 -66 -150 -83 -33
-16 -67 -34 -75 -41 -8 -6 -57 -33 -107 -59 -51 -27 -93 -54 -93 -62 0 -8 -4
-12 -9 -8 -5 3 -29 -5 -53 -18 -110 -61 -138 -80 -138 -94 0 -11 -3 -13 -12
-5 -10 7 -38 -4 -103 -40 -49 -28 -115 -64 -145 -80 -30 -17 -62 -36 -70 -43
-8 -7 -33 -22 -55 -33 -73 -37 -172 -107 -168 -119 3 -8 -3 -11 -16 -8 -11 2
-37 -9 -59 -25 -52 -38 -101 -62 -115 -57 -12 4 155 117 313 211 52 32 100 64
106 72 6 7 14 11 17 7 4 -3 7 -1 7 5 0 6 10 14 23 18 12 3 41 19 65 35 24 16
45 29 48 29 6 0 193 111 274 162 30 19 80 48 110 65 63 35 141 81 365 216 11
7 46 29 78 50 32 20 60 37 62 37 2 0 34 18 72 40 l68 39 3 -30 c2 -19 -3 -38
-14 -50z m426 62 c0 -20 -92 -76 -104 -64 -13 13 -4 24 41 53 55 35 63 36 63
11z m70 -33 c0 -2 -7 -52 -15 -112 -7 -60 -14 -112 -13 -115 0 -3 -1 -15 -2
-26 -2 -17 -3 -17 -10 5 -14 43 -12 238 3 243 13 6 37 9 37 5z m-220 -48 c-6
-11 -7 -20 -3 -20 4 0 -16 -12 -44 -28 -29 -15 -61 -34 -71 -43 -10 -8 -24
-18 -32 -22 -8 -4 -23 -12 -32 -19 -14 -10 -20 -10 -30 0 -11 11 -10 12 3 7
12 -5 15 0 12 22 -4 27 1 31 89 75 107 53 124 58 108 28z m-260 -34 c0 -19
-12 -29 -57 -53 -260 -132 -655 -368 -698 -417 -5 -6 -45 -31 -87 -55 -43 -24
-74 -49 -71 -54 4 -6 1 -7 -6 -3 -7 5 -20 1 -29 -7 -18 -15 -317 -191 -367
-215 -16 -8 -37 -20 -45 -27 -8 -7 -55 -33 -105 -59 -83 -43 -91 -45 -102 -29
-19 25 -17 30 30 59 23 15 44 30 47 34 3 3 12 9 20 13 8 4 24 13 34 19 58 38
157 98 160 98 2 0 55 30 117 66 63 37 148 85 189 107 41 22 82 45 90 51 8 7
31 19 50 29 19 9 42 21 50 27 33 21 149 89 210 122 247 133 415 228 480 269
41 26 78 48 83 48 4 1 7 -10 7 -23z m-1877 -85 c27 -12 53 -21 59 -21 5 0 35
-18 66 -40 l56 -41 4 -87 c6 -176 5 -198 -12 -254 -14 -44 -24 -59 -46 -68
-33 -14 -53 -5 -90 37 -86 99 -108 156 -99 247 7 61 -1 116 -16 116 -3 0 -3
-15 0 -32 3 -18 1 -46 -3 -63 l-9 -30 -8 27 c-7 27 -3 80 10 111 4 10 3 17 -4
17 -17 0 -41 -63 -41 -107 0 -20 7 -62 16 -94 16 -55 15 -60 -6 -126 -13 -37
-31 -85 -42 -106 -16 -32 -23 -38 -46 -35 -22 2 -33 14 -55 58 -15 31 -30 71
-33 90 -17 111 -24 215 -20 290 3 47 5 93 5 102 1 27 55 38 166 33 72 -2 113
-9 148 -24z m344 -301 c3 -13 23 -42 45 -64 58 -61 46 -100 -28 -94 -32 2 -43
10 -66 43 -35 51 -55 113 -64 195 l-7 65 57 -60 c31 -33 60 -71 63 -85z m1353
-480 c0 -5 -4 -10 -10 -10 -5 0 -10 5 -10 10 0 6 5 10 10 10 6 0 10 -4 10 -10z
m-1500 -35 c0 -6 -87 -65 -127 -87 -18 -10 -33 -15 -33 -11 1 9 79 63 125 87
33 17 35 18 35 11z m35 -45 c4 -6 10 -8 15 -5 4 3 6 -4 3 -14 -3 -11 -40 -38
-91 -65 -80 -43 -88 -45 -99 -29 -7 9 -13 20 -13 23 0 8 152 100 167 100 6 0
15 -5 18 -10z m52 -77 c1 -10 4 -27 8 -39 5 -17 -5 -27 -71 -67 -42 -26 -79
-47 -83 -47 -4 0 -17 13 -29 29 -25 34 -24 35 63 79 33 17 69 37 80 46 26 20
30 20 32 -1z m48 -136 c4 -23 11 -47 16 -52 15 -19 23 -141 10 -150 -25 -15
-83 7 -126 46 -44 41 -95 122 -72 114 7 -2 44 18 82 44 39 27 73 47 77 45 3
-2 9 -23 13 -47z m1085 -958 c-7 -11 -14 -19 -16 -16 -7 7 7 37 17 37 6 0 5
-9 -1 -21z m-40 -59 c-12 -23 -16 -24 -26 -8 -4 6 -3 8 3 5 6 -4 13 0 17 8 3
8 8 15 11 15 3 0 1 -9 -5 -20z m-114 -177 c-14 -20 -26 -34 -26 -30 0 10 44
76 48 72 2 -2 -8 -21 -22 -42z"/>
<path d="M2624 4760 c-16 -11 -40 -38 -53 -61 -19 -34 -21 -45 -12 -65 20 -44
57 -23 109 61 27 44 28 61 4 74 -13 7 -26 4 -48 -9z"/>
<path d="M4279 1793 c-29 -15 -74 -41 -99 -58 -25 -16 -58 -37 -73 -45 -16 -8
-33 -22 -38 -32 -5 -10 -14 -18 -20 -18 -24 0 -285 -246 -402 -379 -50 -57
-61 -58 -25 -1 21 32 79 141 161 300 18 36 40 75 47 86 11 18 11 27 1 53 -15
34 -23 33 -44 -7 -8 -15 -35 -65 -60 -112 -25 -47 -64 -123 -88 -170 -23 -47
-64 -125 -91 -173 -75 -135 -101 -213 -74 -223 11 -4 40 20 98 82 134 143 409
413 508 499 51 44 100 88 109 98 8 9 20 17 26 17 5 0 22 10 37 23 15 13 38 32
52 42 21 16 42 45 33 45 -2 0 -28 -12 -58 -27z"/>
</g>
</svg>
