<?xml version="1.0" standalone="no"?>
<!DOCTYPE svg PUBLIC "-//W3C//DTD SVG 20010904//EN"
 "http://www.w3.org/TR/2001/REC-SVG-20010904/DTD/svg10.dtd">
<svg version="1.0" xmlns="http://www.w3.org/2000/svg"
 width="600.000000pt" height="600.000000pt" viewBox="0 0 600.000000 600.000000"
 preserveAspectRatio="xMidYMid meet">

<g transform="translate(0.000000,600.000000) scale(0.100000,-0.100000)"
fill="#eeeeee" stroke="none">
<path d="M4428 5121 c-16 -37 -28 -75 -28 -83 0 -9 -4 -19 -9 -22 -4 -3 -18
-34 -30 -68 -19 -52 -63 -148 -118 -253 -6 -11 -28 -56 -49 -100 -33 -69 -75
-138 -94 -155 -4 -3 -19 -23 -36 -44 -24 -33 -80 -90 -173 -176 -70 -65 -261
-147 -408 -176 -18 -4 -33 -10 -33 -15 0 -4 -12 -7 -27 -7 -16 1 -64 -3 -108
-10 -145 -22 -219 -27 -295 -20 -41 4 -147 9 -235 12 -88 3 -189 8 -225 11
-308 24 -390 28 -390 17 0 -14 36 -20 175 -27 66 -4 176 -13 245 -22 69 -8
159 -19 200 -23 41 -4 120 -13 175 -20 117 -14 380 -13 407 1 10 5 23 7 28 4
5 -3 31 1 57 9 27 9 89 28 138 43 50 14 122 41 160 58 190 86 383 277 482 476
64 128 113 237 113 250 0 6 13 47 29 92 32 92 84 293 79 307 -2 5 -15 -22 -30
-59z"/>
<path d="M1358 5058 c-2 -40 1 -98 5 -128 5 -30 10 -67 12 -81 9 -75 19 -120
40 -174 13 -33 28 -86 35 -117 6 -32 15 -60 20 -63 5 -3 16 -30 25 -60 8 -30
19 -55 23 -55 5 0 14 -17 21 -37 17 -47 72 -124 133 -187 26 -28 48 -54 48
-58 0 -4 7 -8 15 -8 8 0 15 -4 15 -9 0 -5 14 -14 30 -20 36 -12 39 -31 5 -31
-35 0 -145 -43 -196 -77 -127 -82 -264 -209 -379 -353 -19 -24 -47 -58 -62
-75 -16 -18 -28 -36 -28 -40 0 -3 -21 -32 -48 -63 -55 -66 -112 -148 -112
-162 0 -6 -4 -10 -9 -10 -5 0 -20 -17 -33 -37 -12 -20 -28 -44 -33 -52 -6 -9
-24 -31 -41 -49 -18 -19 -38 -46 -45 -60 -8 -15 -20 -33 -26 -40 -7 -7 -13
-18 -13 -24 0 -20 -30 15 -77 90 -26 42 -49 84 -50 93 -2 10 -16 40 -32 66
-16 26 -52 118 -81 203 -28 85 -56 164 -61 175 -36 82 -68 181 -103 324 -8 29
-20 57 -26 61 -8 5 -10 16 -6 25 7 19 -21 201 -35 225 -4 8 -8 11 -9 5 0 -12
27 -235 39 -327 12 -92 47 -243 72 -313 6 -16 19 -57 28 -90 10 -33 20 -67 23
-75 3 -8 13 -40 23 -70 24 -77 116 -268 161 -336 20 -31 52 -65 69 -77 l32
-21 -23 -35 c-12 -20 -32 -45 -43 -57 -12 -12 -21 -24 -21 -28 0 -3 -13 -25
-30 -48 -16 -22 -30 -46 -30 -53 0 -7 -8 -23 -19 -36 -10 -13 -20 -35 -23 -49
-3 -14 -16 -63 -28 -110 -31 -117 -29 -215 5 -284 51 -101 56 -108 113 -134
51 -23 61 -24 111 -15 31 5 63 13 72 17 15 6 15 2 7 -43 -7 -39 -5 -62 7 -97
18 -55 66 -124 103 -151 32 -23 119 -50 185 -58 45 -6 59 -17 38 -30 -6 -3
-52 -58 -103 -123 -127 -159 -149 -188 -177 -231 -13 -20 -33 -42 -43 -49 -10
-7 -30 -36 -44 -64 -29 -58 -26 -98 11 -122 14 -9 31 -29 39 -44 27 -52 69
-88 118 -100 51 -13 170 -18 186 -8 7 4 6 -6 0 -28 -43 -140 186 -248 372
-175 30 13 66 31 79 41 34 26 40 23 31 -17 -16 -72 29 -156 105 -194 66 -34
146 -41 255 -24 52 8 107 22 122 29 16 8 28 12 28 9 0 -2 15 4 34 14 18 11 44
25 57 33 24 13 110 77 119 89 3 3 12 10 22 15 35 19 93 80 224 233 16 20 50
68 73 106 24 39 52 80 63 91 11 12 19 30 18 40 -5 43 -1 57 14 45 17 -14 21
-9 74 99 75 156 100 222 133 356 l12 51 55 -81 c30 -44 64 -87 74 -94 18 -13
17 -16 -24 -61 -53 -58 -125 -158 -173 -239 -43 -71 -67 -168 -68 -268 -1 -81
22 -130 92 -199 35 -33 47 -39 81 -38 21 1 50 8 62 15 13 7 30 13 38 14 27 3
65 22 79 38 7 9 19 16 25 16 6 0 26 14 44 31 23 22 32 39 32 62 0 18 -4 28 -8
22 -19 -26 -127 -89 -182 -106 -105 -33 -143 -21 -75 23 20 14 35 31 35 43 0
14 3 16 8 7 7 -9 22 -5 68 19 66 36 186 79 218 79 18 0 16 -3 -10 -19 -38 -23
-48 -37 -34 -46 8 -5 7 -11 -1 -21 -18 -22 6 -16 26 6 10 11 22 20 27 20 8 0
49 34 92 76 12 11 39 32 62 47 22 15 56 42 76 60 70 64 60 64 130 -2 35 -34
71 -64 81 -67 9 -3 17 -9 17 -13 0 -8 80 -68 116 -87 71 -38 186 -47 238 -20
70 36 128 117 128 178 0 60 -13 171 -21 187 -5 9 -11 30 -15 46 -6 27 0 23 61
-40 139 -144 189 -175 276 -175 62 0 122 28 132 61 4 10 10 19 14 19 4 0 13
17 20 37 18 50 17 173 -3 257 -9 38 -15 71 -13 73 3 2 12 -8 21 -23 86 -131
208 -181 282 -116 60 53 82 142 59 246 -17 78 -63 199 -84 223 -18 20 -28 93
-13 93 8 0 76 59 135 117 38 38 137 160 137 170 0 6 11 25 25 41 14 17 25 37
25 45 0 8 7 20 15 27 8 7 15 18 15 24 0 7 13 27 30 46 16 19 29 40 30 47 0 6
17 47 39 90 21 43 47 101 56 128 10 28 29 74 42 103 12 29 23 60 23 68 0 8 5
24 11 35 6 11 12 28 14 37 2 9 15 61 29 116 15 54 28 110 30 125 2 14 10 49
19 76 21 67 54 217 63 285 4 30 8 62 9 70 2 8 6 38 9 65 4 28 9 61 12 75 12
75 16 159 6 176 -8 15 -11 10 -17 -31 -4 -28 -13 -77 -21 -110 -8 -33 -21 -94
-29 -135 -17 -91 -69 -296 -83 -330 -18 -45 -43 -134 -49 -180 -4 -24 -14 -58
-24 -75 -9 -16 -20 -46 -24 -65 -4 -19 -11 -39 -15 -45 -4 -5 -15 -37 -25 -70
-23 -82 -54 -164 -75 -200 -10 -16 -21 -41 -25 -55 -10 -38 -66 -147 -85 -167
-9 -10 -33 -52 -54 -94 -21 -42 -48 -88 -60 -100 -11 -13 -40 -49 -63 -79 -23
-30 -71 -83 -106 -118 l-64 -64 -22 37 c-11 20 -21 38 -21 40 0 3 -17 30 -37
61 -46 69 -69 108 -118 199 -43 79 -114 188 -127 193 -4 2 -8 9 -8 15 0 17
-156 237 -190 267 -6 6 -54 71 -64 87 -4 8 12 21 49 38 31 14 58 25 62 25 6 0
145 90 153 99 3 3 25 20 50 36 45 30 220 199 220 213 0 4 15 23 33 42 48 51
87 116 172 285 24 50 49 97 54 105 11 19 35 73 56 130 9 25 23 59 30 75 30 69
58 165 125 435 5 19 15 60 24 90 20 68 48 368 37 387 -8 15 -51 -163 -51 -212
0 -13 -4 -34 -9 -48 -5 -13 -12 -41 -15 -61 -3 -21 -11 -46 -16 -57 -10 -18
-34 -94 -66 -209 -27 -99 -86 -284 -102 -320 -8 -19 -37 -81 -64 -137 -26 -56
-48 -105 -48 -109 0 -3 -15 -32 -34 -63 -18 -31 -48 -83 -66 -116 -35 -64 -86
-135 -147 -201 -21 -23 -46 -50 -55 -60 -33 -38 -96 -94 -105 -94 -5 0 -16 -9
-25 -19 -25 -29 -160 -118 -221 -145 -30 -13 -58 -29 -61 -35 -14 -22 -39 -9
-96 51 -32 35 -61 60 -65 57 -3 -4 1 -14 10 -22 8 -9 15 -19 15 -24 0 -4 14
-26 30 -47 17 -22 29 -40 27 -42 -1 -1 -42 -19 -90 -39 -80 -32 -100 -37 -195
-40 -83 -2 -108 -6 -117 -19 -7 -9 -20 -16 -29 -16 -16 0 -77 -31 -130 -65
-26 -17 -69 -78 -78 -110 -4 -11 -15 -45 -27 -76 -34 -94 -44 -182 -53 -483
l-3 -100 -48 -45 c-59 -55 -96 -124 -112 -207 -15 -75 -10 -125 16 -176 19
-37 19 -41 4 -64 -36 -55 -139 -58 -193 -7 -7 7 -17 13 -21 13 -5 0 -36 28
-70 63 -58 59 -112 150 -124 207 -3 14 -13 54 -22 90 -27 108 -32 157 -29 278
5 195 14 266 51 389 13 45 26 93 29 105 2 13 10 46 16 73 6 28 11 88 11 135 0
75 -4 93 -31 150 -40 86 -78 114 -137 106 -24 -4 -49 -14 -55 -21 -7 -8 -18
-15 -25 -15 -13 0 -65 -69 -65 -87 0 -6 -21 -60 -46 -119 -25 -60 -50 -124
-56 -143 -11 -37 -154 -319 -197 -389 -132 -215 -365 -502 -406 -502 -8 0 -15
-7 -15 -15 0 -8 -7 -15 -15 -15 -8 0 -15 -4 -15 -9 0 -15 -133 -100 -201 -127
-88 -36 -187 -47 -214 -24 -11 9 -34 23 -50 30 l-31 13 51 51 c94 95 147 244
149 419 1 82 -2 101 -16 111 -15 11 -15 15 -3 37 7 13 27 49 43 79 16 30 46
87 66 125 20 39 49 90 63 115 15 25 43 77 63 115 62 119 122 230 131 239 5 6
9 15 9 22 0 7 16 41 36 76 82 141 104 187 95 192 -8 5 -80 -98 -125 -179 -9
-16 -20 -37 -25 -45 -9 -15 -168 -297 -211 -375 -34 -61 -120 -205 -150 -250
-14 -22 -41 -69 -59 -105 -19 -36 -40 -72 -47 -81 -8 -8 -14 -19 -14 -23 0 -4
-11 -22 -24 -39 -13 -18 -40 -63 -61 -102 -20 -38 -44 -77 -52 -86 -7 -9 -17
-34 -20 -55 -3 -22 -9 -43 -13 -49 -4 -5 -10 -22 -14 -37 -6 -26 -64 -75 -137
-116 -74 -41 -242 -10 -300 56 l-30 34 29 18 c69 42 150 138 195 230 39 80 44
179 13 247 -21 48 -20 52 42 154 18 30 67 110 108 179 41 69 113 186 159 260
47 74 85 144 85 155 0 19 0 19 -19 0 -10 -11 -53 -72 -95 -135 -42 -63 -79
-119 -83 -125 -24 -31 -113 -164 -113 -169 0 -6 -52 -86 -100 -154 -16 -23
-30 -45 -30 -49 0 -3 -19 -30 -42 -59 -24 -29 -54 -72 -68 -95 -14 -23 -39
-60 -57 -81 -18 -22 -47 -70 -65 -109 -32 -67 -35 -70 -85 -85 -90 -27 -168
14 -207 110 -16 38 -16 38 10 59 41 32 63 58 100 118 61 101 77 231 41 336
-12 36 -12 44 -1 54 8 6 14 16 14 22 0 5 12 26 28 46 15 20 32 46 39 58 6 12
35 52 65 90 30 37 67 90 83 118 15 27 39 60 52 73 13 13 34 40 47 61 13 20 31
42 40 50 9 7 16 18 16 24 0 9 48 72 110 145 11 13 20 29 20 35 0 7 30 44 65
82 36 39 79 85 96 103 16 17 34 32 39 32 6 0 10 6 10 13 1 6 30 34 65 62 36
27 67 55 69 62 3 7 13 13 21 13 10 0 13 5 9 12 -4 6 -3 8 3 5 5 -4 37 7 69 23
32 16 68 30 80 30 11 0 24 3 28 7 3 4 14 8 24 9 17 1 61 9 112 19 14 3 67 7
119 10 86 4 111 9 100 19 -2 2 -53 6 -114 10 -136 7 -153 12 -190 51 -16 17
-40 38 -52 47 -40 26 -137 151 -170 218 -33 64 -67 151 -103 263 -11 32 -26
72 -34 90 -18 38 -47 124 -52 152 -13 69 -68 265 -75 265 -5 0 -9 -33 -11 -72z
m1604 -1905 c36 -40 61 -100 66 -158 4 -55 -10 -136 -62 -337 -19 -74 -37
-166 -41 -206 -6 -65 -5 -72 12 -73 15 0 15 -1 -3 -9 -17 -7 -22 -18 -23 -57
-1 -26 -5 -77 -8 -113 -5 -69 16 -215 44 -307 17 -51 17 -52 -16 -150 -30 -91
-115 -281 -131 -293 -12 -9 -74 -134 -72 -146 1 -6 -8 -16 -21 -23 -13 -7 -31
-26 -41 -41 -9 -16 -22 -35 -29 -42 -7 -7 -32 -40 -56 -73 -71 -95 -160 -191
-241 -259 -41 -35 -80 -65 -85 -67 -6 -2 -42 -23 -82 -47 -157 -95 -381 -104
-462 -18 l-21 23 50 32 c27 17 68 53 90 79 44 51 98 153 104 199 2 15 7 43 11
60 5 20 3 38 -3 46 -8 9 -4 28 15 70 14 32 23 61 19 65 -4 4 -26 -13 -48 -38
-22 -25 -61 -68 -87 -96 -63 -70 -124 -144 -135 -163 -5 -9 -17 -21 -25 -27
-9 -7 -27 -21 -40 -33 -13 -12 -29 -21 -34 -21 -6 0 -24 -11 -41 -24 -70 -53
-210 -80 -266 -52 -18 9 -40 16 -49 16 -9 0 -1 10 19 24 34 23 94 89 137 151
29 41 57 129 44 133 -6 2 -11 10 -11 18 0 9 4 13 9 10 11 -7 23 67 14 91 -3
10 -13 26 -21 35 -12 15 -10 23 27 75 23 32 47 66 54 77 6 10 32 43 56 73 24
30 40 57 37 60 -8 8 -77 -58 -71 -67 2 -4 -11 -22 -30 -40 -19 -19 -35 -39
-35 -45 0 -5 -10 -21 -23 -35 -28 -32 -70 -94 -99 -149 -7 -13 -24 -36 -38
-51 -14 -15 -32 -40 -40 -56 -26 -50 -53 -72 -130 -105 -62 -26 -88 -32 -150
-32 -69 0 -77 3 -106 29 -17 16 -38 41 -47 55 l-17 26 44 17 c60 23 158 122
192 195 21 44 28 72 29 131 1 72 4 78 48 144 25 38 51 84 57 102 9 25 17 34
34 34 13 0 47 22 80 50 63 55 76 60 76 30 0 -30 66 -97 108 -110 20 -6 54 -21
75 -32 21 -11 55 -21 75 -21 71 -2 233 54 283 99 8 8 18 14 22 14 3 0 21 14
39 30 38 35 52 34 56 -6 2 -16 9 -49 17 -74 7 -25 17 -67 21 -95 9 -63 7 -52
39 -170 15 -55 36 -133 47 -174 18 -68 75 -166 110 -187 7 -4 42 -7 79 -7 62
2 100 13 184 54 29 14 81 66 119 119 61 85 121 330 111 455 -3 33 -7 92 -10
130 -3 39 -7 77 -10 85 -2 8 -6 38 -9 65 -3 28 -12 76 -21 108 -8 32 -15 73
-15 92 0 19 -4 36 -9 39 -5 3 -11 20 -14 38 -7 41 -19 90 -47 193 -35 130 -32
161 29 305 75 179 137 303 163 327 25 24 77 53 94 53 5 0 22 -12 36 -27z
m1500 -290 c62 -84 140 -198 173 -253 33 -55 63 -100 67 -100 3 0 9 -13 13
-29 7 -33 29 -56 44 -46 7 4 9 -6 7 -26 -3 -26 8 -51 49 -118 78 -128 98 -167
153 -297 46 -109 58 -144 82 -244 13 -54 7 -86 -16 -82 -46 9 -82 43 -117 114
-44 88 -57 150 -57 275 0 52 -4 92 -9 89 -17 -11 -32 -128 -26 -194 18 -171
108 -312 199 -312 34 0 33 -15 -3 -51 -34 -33 -66 -37 -118 -12 -65 30 -203
184 -203 226 0 20 -49 112 -103 193 -26 39 -47 77 -47 83 0 7 -4 10 -9 7 -5
-3 -21 10 -35 28 -30 40 -35 62 -5 27 11 -13 22 -21 26 -18 8 8 -17 46 -56 85
-17 17 -31 32 -31 35 0 5 -64 109 -170 277 -44 69 -89 142 -100 162 -25 46
-44 60 -30 22 14 -36 43 -84 50 -84 4 0 7 -6 7 -13 0 -16 139 -249 192 -322
19 -27 30 -46 23 -41 -8 5 -12 0 -12 -15 0 -18 28 -71 139 -261 9 -16 20 -28
24 -28 5 0 5 6 1 13 -5 8 -2 7 10 -2 9 -8 14 -21 11 -29 -3 -8 10 -35 28 -61
22 -29 42 -77 56 -131 13 -47 27 -96 33 -110 5 -14 12 -67 15 -118 l6 -93 -26
10 c-49 19 -73 41 -95 85 -32 63 -42 132 -42 287 0 77 -4 139 -9 139 -13 0
-31 -139 -31 -238 0 -167 70 -301 157 -302 41 0 45 -15 17 -58 -29 -45 -56
-55 -116 -48 -57 8 -75 20 -189 136 -118 120 -188 213 -225 298 -98 222 -221
412 -268 412 -28 0 -15 -35 67 -179 40 -69 81 -145 92 -169 10 -24 33 -65 50
-92 17 -27 51 -109 74 -182 24 -73 46 -142 50 -153 9 -27 8 -171 -2 -181 -11
-11 -64 44 -87 90 -38 81 -51 155 -50 289 0 70 -3 127 -8 127 -27 0 -43 -235
-22 -330 15 -66 49 -129 97 -176 l41 -42 -29 -21 c-70 -52 -178 -24 -318 82
-108 82 -375 341 -385 374 -10 32 9 62 34 56 20 -5 28 11 10 22 -6 4 -2 22 11
47 60 119 89 280 104 583 10 220 25 331 55 425 40 124 75 172 153 212 51 25
80 33 162 40 55 4 141 20 190 34 122 36 149 42 157 35 3 -3 57 -75 120 -158z
m-3750 -191 c0 -47 -7 -104 -17 -138 -18 -64 -87 -184 -115 -202 -16 -10 -18
-6 -19 41 0 51 22 150 53 234 17 47 85 157 92 150 3 -3 5 -41 6 -85z m1892
-247 c18 -125 38 -240 43 -248 2 -4 7 -31 9 -60 3 -29 9 -68 14 -87 28 -107
32 -456 5 -506 -8 -16 -15 -36 -15 -45 0 -16 -17 -62 -45 -124 -23 -51 -72
-112 -102 -127 -15 -8 -46 -24 -68 -36 -51 -27 -134 -38 -157 -20 -16 12 -16
17 -4 53 34 98 26 248 -16 324 -30 54 -87 129 -110 145 -20 14 -24 28 -55 160
l-17 69 60 56 c73 69 118 123 151 179 14 23 29 42 34 42 5 0 9 5 9 11 0 6 20
38 45 70 25 33 45 61 45 64 0 2 24 44 53 92 29 48 64 110 78 137 l24 49 6 -74
c3 -41 9 -96 13 -124z m-1479 -27 c7 -49 2 -99 -14 -143 -19 -50 -65 -135 -73
-135 -4 0 -8 -4 -8 -9 0 -13 -80 -100 -103 -113 -28 -15 -49 17 -42 65 7 47
51 137 76 155 11 7 19 17 19 22 0 5 11 26 25 46 14 20 23 40 20 44 -3 4 2 10
10 14 8 3 15 12 15 21 0 8 4 15 10 15 5 0 16 14 25 30 21 41 33 38 40 -12z
m552 -103 c-12 -180 -84 -373 -158 -423 -31 -22 -34 -22 -46 -6 -7 10 -13 44
-13 76 0 53 7 72 73 202 68 132 136 246 146 246 2 0 1 -43 -2 -95z m2777 -145
c7 -23 6 -22 -13 5 -24 34 -28 53 -7 33 7 -8 17 -25 20 -38z m-517 -87 c40
-64 49 -83 24 -53 -22 28 -65 100 -58 100 2 0 17 -21 34 -47z m-387 -80 c-12
-92 -65 -273 -80 -273 -5 0 -14 16 -20 36 -18 54 -7 152 24 220 32 68 78 133
84 116 2 -7 -1 -51 -8 -99z m950 87 c6 -11 8 -20 6 -20 -3 0 -10 9 -16 20 -6
11 -8 20 -6 20 3 0 10 -9 16 -20z m51 -85 l10 -20 -16 20 c-9 11 -21 29 -26
40 l-10 20 16 -20 c9 -11 21 -29 26 -40z m-2353 -422 c22 -38 45 -86 51 -108
14 -51 14 -222 1 -230 -20 -12 -57 113 -74 250 -3 22 -10 64 -16 94 -15 81
-14 81 38 -6z m1027 -12 c5 -4 29 -13 52 -19 44 -13 115 -4 136 17 20 20 35
11 62 -36 27 -45 64 -95 133 -182 19 -22 29 -41 24 -41 -6 0 -28 -15 -50 -32
-98 -80 -153 -113 -200 -119 -122 -17 -261 -79 -359 -160 l-56 -46 -24 28
c-46 55 -49 122 -10 236 13 38 120 210 140 224 9 6 34 51 65 116 20 41 22 42
49 32 15 -5 32 -14 38 -18z m-2170 -104 c-33 -100 -121 -213 -202 -255 -64
-34 -52 20 20 93 91 91 117 120 117 128 0 5 16 28 35 51 19 24 36 49 36 57 1
8 3 7 6 -4 2 -9 -3 -41 -12 -70z m373 -189 c-2 -71 -7 -92 -37 -151 -40 -78
-135 -196 -168 -208 -29 -11 -47 20 -38 63 7 31 70 98 91 98 7 0 19 12 29 26
15 23 15 27 1 42 -17 20 -13 29 45 109 21 28 40 57 41 65 3 11 27 37 36 38 2
0 2 -37 0 -82z m472 -189 c-12 -35 -35 -87 -51 -115 -16 -28 -27 -54 -24 -57
3 -4 2 -5 -1 -2 -8 5 -44 -39 -44 -54 0 -6 -6 -11 -14 -11 -7 0 -25 -9 -39
-20 -34 -27 -37 -26 -37 14 0 46 19 79 81 139 30 29 74 83 99 120 24 38 46 64
48 59 2 -6 -7 -38 -18 -73z"/>
<path d="M5789 4125 c-6 -40 -4 -53 7 -43 3 3 4 23 2 44 l-3 39 -6 -40z"/>
<path d="M2210 3435 c-7 -9 -8 -15 -2 -15 5 0 12 7 16 15 3 8 4 15 2 15 -2 0
-9 -7 -16 -15z"/>
<path d="M1590 3288 c-31 -43 -37 -58 -20 -58 5 0 21 23 35 50 31 61 25 64
-15 8z"/>
</g>
</svg>
