<?xml version="1.0" standalone="no"?>
<!DOCTYPE svg PUBLIC "-//W3C//DTD SVG 20010904//EN"
 "http://www.w3.org/TR/2001/REC-SVG-20010904/DTD/svg10.dtd">
<svg version="1.0" xmlns="http://www.w3.org/2000/svg"
 width="600.000000pt" height="600.000000pt" viewBox="0 0 600.000000 600.000000"
 preserveAspectRatio="xMidYMid meet">

<g transform="translate(0.000000,600.000000) scale(0.100000,-0.100000)"
fill="#000000" stroke="none">
<path d="M2744 5708 c5 -85 -20 -208 -55 -283 -39 -81 -99 -149 -182 -206 -43
-30 -83 -59 -89 -65 -7 -6 -23 -8 -36 -6 -51 10 -15 -21 48 -42 36 -11 71 -26
78 -33 7 -7 17 -13 21 -13 4 0 33 -25 66 -55 32 -30 61 -55 63 -55 10 0 72
-72 72 -84 0 -6 20 -36 45 -66 27 -33 53 -80 66 -117 19 -59 39 -78 54 -53 10
15 35 -8 35 -31 0 -10 13 -25 29 -33 38 -20 51 -6 50 55 -1 24 4 57 10 72 17
43 61 140 72 157 5 8 13 24 18 35 5 12 16 27 25 34 9 7 16 21 16 30 0 21 57
111 70 111 6 0 10 6 10 13 0 11 21 36 98 112 18 18 61 52 96 75 71 48 90 72
81 101 -6 19 -12 19 -91 13 -96 -8 -195 8 -233 38 -14 10 -43 27 -65 38 -56
27 -145 86 -171 114 -5 6 -25 23 -43 38 -18 15 -49 49 -69 75 -20 26 -39 50
-43 53 -4 3 -9 14 -11 25 -3 11 -12 21 -21 23 -15 3 -17 -5 -14 -70z m157
-168 c25 -25 65 -58 90 -75 24 -16 63 -44 86 -61 63 -48 165 -94 222 -101 61
-7 71 -17 33 -32 -27 -11 -63 -31 -72 -42 -3 -3 -25 -19 -50 -36 -78 -53 -140
-114 -191 -186 -27 -39 -49 -75 -49 -82 0 -7 -9 -20 -19 -29 -30 -27 -48 -94
-45 -161 3 -57 3 -58 -6 -21 -12 48 -28 69 -47 62 -17 -7 -30 23 -15 33 19 12
-49 112 -133 197 -75 75 -149 124 -188 124 -31 0 -18 17 42 55 75 46 134 112
171 191 33 68 59 170 62 240 l2 46 31 -39 c16 -21 51 -58 76 -83z"/>
<path d="M1995 4408 c-71 -25 -94 -38 -145 -86 -62 -56 -140 -197 -140 -252 0
-34 -18 -31 -47 8 -106 145 -184 183 -253 126 -34 -29 -64 -83 -100 -181 l-22
-63 -31 43 c-57 80 -120 136 -185 163 -55 24 -67 26 -100 16 -100 -30 -137
-152 -145 -468 -2 -84 0 -201 4 -260 8 -97 16 -152 48 -329 10 -57 79 -324 87
-337 3 -5 10 -5 16 -2 6 4 8 -1 4 -13 -5 -17 13 -78 63 -208 58 -149 227 -444
296 -516 8 -9 15 -21 15 -27 0 -7 3 -12 8 -12 4 0 57 -48 117 -106 192 -184
424 -343 590 -404 11 -4 34 -13 50 -20 132 -54 238 -80 460 -116 211 -33 517
3 745 88 64 24 256 118 297 145 96 65 124 83 129 83 3 0 19 9 35 21 l30 21 -7
-29 c-4 -15 -11 -32 -15 -37 -5 -6 -9 -16 -9 -24 0 -8 -16 -53 -34 -101 -19
-47 -37 -100 -41 -118 -3 -18 -10 -45 -16 -60 -6 -15 -22 -71 -36 -123 -13
-52 -34 -115 -45 -139 -11 -24 -26 -69 -34 -100 -8 -31 -18 -65 -23 -76 -5
-11 -16 -51 -25 -90 -19 -77 -20 -83 -29 -105 -3 -8 -8 -31 -11 -50 -3 -19
-10 -64 -15 -100 -5 -36 -18 -85 -29 -110 -34 -81 -57 -189 -44 -202 9 -9 15
-9 26 2 16 17 91 201 105 258 14 53 49 154 61 174 5 10 10 26 10 36 0 9 7 27
15 40 9 12 23 43 31 69 23 74 94 341 98 373 3 18 14 48 27 72 5 10 9 33 9 52
0 19 4 37 9 40 4 3 11 24 15 46 11 68 20 144 20 173 1 15 4 27 9 27 4 0 7 6 7
14 0 7 12 40 26 72 26 58 41 154 25 154 -11 0 -36 -31 -44 -53 -7 -18 -26 -31
-227 -150 -93 -55 -270 -134 -380 -170 -109 -36 -135 -42 -260 -58 -41 -5 -82
-12 -90 -16 -15 -6 -172 -4 -233 2 -18 2 -63 6 -102 10 -38 4 -74 10 -80 14
-5 4 -44 14 -85 21 -41 7 -91 18 -110 25 -19 7 -62 21 -95 31 -33 9 -69 23
-80 30 -11 7 -46 22 -78 34 -31 12 -63 27 -70 34 -7 8 -24 17 -37 21 -14 4
-62 32 -109 62 -65 42 -86 51 -93 41 -7 -10 -8 -10 -6 2 2 9 -56 69 -142 147
-232 211 -277 267 -402 513 -16 30 -32 62 -37 70 -10 16 -58 123 -71 155 -4
11 -17 41 -29 67 -12 26 -21 52 -21 58 0 6 -9 39 -20 73 -38 120 -75 259 -86
322 -2 17 -11 66 -19 110 -23 129 -33 269 -30 440 3 199 17 297 50 367 31 66
57 83 114 73 34 -6 54 -20 111 -77 39 -39 86 -96 104 -127 34 -55 34 -59 34
-161 -2 -274 69 -622 190 -925 86 -218 146 -319 185 -313 21 3 22 7 21 103 -1
60 -10 140 -22 200 -12 55 -24 123 -27 150 -5 50 -22 141 -49 265 -8 36 -26
100 -40 143 -14 43 -26 84 -26 91 0 8 -7 27 -15 43 -8 15 -26 60 -40 98 -15
39 -51 120 -81 181 -30 61 -54 120 -54 131 0 50 66 197 106 237 19 20 66 21
102 2 29 -15 81 -74 127 -144 26 -40 27 -46 20 -110 -15 -135 -21 -319 -12
-387 3 -22 8 -71 12 -110 3 -38 13 -106 21 -150 9 -44 17 -89 19 -100 9 -57
50 -211 78 -295 17 -52 31 -97 30 -100 -1 -3 22 -52 50 -110 67 -136 83 -139
79 -15 -8 269 -48 665 -82 810 -59 256 -74 313 -91 363 -10 30 -19 74 -19 97
0 40 24 140 39 160 4 6 18 36 30 67 13 31 29 59 37 62 8 3 14 11 14 19 0 17
33 47 85 77 48 27 177 38 233 19 51 -17 148 -76 186 -112 33 -33 116 -141 116
-152 0 -4 11 -21 24 -38 61 -82 140 -329 166 -527 6 -46 15 -89 18 -95 4 -5 8
-174 8 -375 1 -369 12 -814 20 -838 2 -7 8 -11 13 -8 20 13 38 330 20 352 -6
7 -7 18 -3 25 4 6 8 122 10 258 2 135 6 287 8 336 4 115 -10 310 -30 400 -22
100 -55 227 -64 250 -5 11 -16 45 -24 75 -30 104 -134 274 -224 366 -105 108
-217 163 -337 169 -44 2 -93 -1 -110 -7z m-176 -833 c50 -207 71 -310 76 -377
2 -29 10 -134 19 -233 8 -99 17 -218 19 -265 l4 -85 -19 45 c-26 60 -84 250
-104 341 -9 41 -22 103 -30 139 -8 36 -17 88 -20 115 -3 28 -10 73 -15 102 -6
28 -10 136 -9 240 1 103 1 204 1 223 0 31 2 29 20 -25 11 -33 37 -132 58 -220z
m-469 167 c0 -4 11 -29 25 -56 14 -27 25 -57 25 -66 0 -10 6 -23 14 -29 8 -6
16 -24 19 -39 5 -26 31 -106 47 -147 21 -54 79 -290 100 -415 6 -30 17 -93 25
-140 8 -47 19 -112 25 -145 5 -33 12 -72 15 -87 2 -16 0 -28 -5 -28 -42 0
-212 422 -269 670 -22 96 -47 258 -57 370 -4 41 -10 77 -14 80 -4 3 -3 26 3
52 l11 46 18 -29 c10 -16 18 -33 18 -37z"/>
<path d="M3260 4082 c-48 -3 -104 -25 -117 -45 -4 -6 -7 -21 -8 -32 0 -11 -7
-20 -15 -20 -12 0 -15 -15 -14 -80 2 -111 35 -194 157 -396 12 -20 41 -58 65
-85 59 -67 46 -24 -18 62 -63 82 -92 133 -129 221 -28 68 -36 100 -46 188 -10
89 54 142 152 124 105 -18 227 -63 264 -96 14 -13 32 -23 41 -23 9 0 19 -4 22
-9 6 -9 90 -69 150 -106 17 -11 47 -33 66 -50 18 -16 59 -52 89 -79 31 -26 63
-56 71 -65 8 -9 24 -23 36 -31 26 -19 143 -150 201 -226 13 -16 44 -56 70 -89
26 -33 57 -81 70 -107 12 -25 27 -49 32 -53 6 -3 18 -23 27 -43 8 -20 29 -64
45 -97 16 -33 29 -63 29 -67 0 -4 11 -32 25 -62 14 -30 25 -60 25 -66 0 -7 9
-29 19 -49 21 -38 113 -301 106 -301 -3 0 -12 15 -21 33 -9 17 -20 34 -23 37
-3 3 -11 14 -18 25 -6 11 -16 19 -22 17 -6 -1 -10 3 -9 9 5 19 -166 164 -224
191 -29 14 -75 31 -103 38 -27 7 -54 16 -60 21 -30 22 -273 28 -355 9 -58 -13
-180 -74 -240 -118 -40 -30 -140 -133 -140 -145 0 -5 -20 -32 -45 -60 -25 -29
-45 -56 -45 -62 -1 -5 -13 -36 -29 -68 l-28 -59 -16 26 c-9 14 -17 30 -17 36
0 21 -65 50 -110 50 -81 0 -212 -77 -254 -151 l-20 -33 60 46 c80 62 117 79
185 85 53 5 60 3 82 -21 36 -38 51 -104 44 -191 -4 -59 -2 -75 9 -79 16 -6 74
49 74 70 0 6 16 45 35 87 19 42 35 81 35 87 0 6 18 38 40 71 22 33 40 62 40
65 0 19 166 194 184 194 3 0 29 16 56 35 27 19 56 35 63 35 7 0 24 8 37 17 37
26 294 25 365 -2 28 -10 54 -22 60 -27 5 -4 16 -8 25 -8 24 0 79 -29 120 -62
19 -15 38 -28 43 -28 20 0 169 -170 181 -206 3 -11 14 -29 25 -40 25 -28 81
-179 86 -239 3 -27 10 -88 16 -135 5 -47 21 -184 35 -305 14 -121 27 -231 29
-245 2 -14 7 -59 10 -100 7 -73 34 -214 54 -275 l9 -30 1 30 c1 17 -3 77 -9
135 -5 58 -12 134 -15 170 -5 80 -14 179 -21 245 -3 28 -5 57 -5 65 -1 19 -17
225 -25 305 -3 33 -14 103 -25 155 -11 52 -24 116 -29 142 -5 26 -29 111 -54
190 -24 79 -48 161 -51 183 -4 22 -22 79 -41 126 -19 48 -34 91 -34 97 0 5
-12 36 -26 68 -14 33 -34 79 -45 104 -11 25 -31 66 -44 91 -14 26 -25 53 -25
61 0 8 -9 23 -20 33 -11 10 -20 24 -20 31 0 7 -6 17 -13 21 -8 4 -32 35 -54
68 -23 34 -49 67 -58 75 -9 8 -34 39 -55 70 -21 30 -46 62 -57 71 -10 9 -47
47 -83 84 -35 37 -89 87 -120 111 -30 24 -64 52 -76 63 -11 10 -32 24 -45 31
-13 7 -45 31 -70 52 -25 21 -49 38 -53 38 -4 0 -22 11 -40 25 -51 39 -194 106
-261 122 -103 26 -119 28 -165 25z"/>
<path d="M3380 3369 c0 -20 204 -214 280 -265 39 -27 78 -53 86 -59 9 -6 18
-5 26 3 11 11 9 17 -11 33 -13 10 -28 19 -35 19 -37 0 -315 240 -316 273 0 12
-30 8 -30 -4z"/>
</g>
</svg>
